<svg id="svg" version="1.1" xmlns="http://www.w3.org/2000/svg" xmlns:xlink="http://www.w3.org/1999/xlink" width="400" height="400" viewBox="0, 0, 400,400"><g id="svgg"><path id="path0" d="M27.900 0.289 C 27.075 0.377,26.400 0.617,26.400 0.824 C 26.400 1.031,25.860 1.200,25.200 1.200 C 24.540 1.200,24.000 1.380,24.000 1.600 C 24.000 1.820,23.665 2.000,23.256 2.000 C 22.344 2.000,17.600 4.405,17.600 4.867 C 17.600 5.050,17.280 5.200,16.888 5.200 C 16.497 5.200,15.917 5.560,15.600 6.000 C 15.283 6.440,14.779 6.800,14.479 6.800 C 13.770 6.800,6.800 13.770,6.800 14.479 C 6.800 14.779,6.440 15.283,6.000 15.600 C 5.560 15.917,5.200 16.497,5.200 16.888 C 5.200 17.280,5.048 17.600,4.863 17.600 C 4.677 17.600,4.118 18.455,3.619 19.500 C 3.120 20.545,2.552 21.713,2.356 22.095 C 2.160 22.477,2.000 23.062,2.000 23.395 C 2.000 23.728,1.820 24.000,1.600 24.000 C 1.380 24.000,1.200 24.525,1.200 25.167 C 1.200 25.808,0.975 26.408,0.700 26.500 C 0.304 26.632,0.179 37.886,0.101 80.633 C -0.006 138.168,-0.071 136.120,1.907 136.995 C 2.398 137.212,2.800 137.527,2.800 137.695 C 2.800 137.863,16.120 138.000,32.400 138.000 L 62.000 138.000 62.000 175.400 L 62.000 212.800 60.400 212.800 C 59.520 212.800,58.800 212.620,58.800 212.400 C 58.800 212.145,55.541 212.000,49.824 212.000 C 44.271 212.000,40.753 212.153,40.600 212.400 C 40.464 212.620,39.643 212.800,38.776 212.800 C 37.909 212.800,37.200 212.980,37.200 213.200 C 37.200 213.420,36.581 213.600,35.824 213.600 C 35.067 213.600,34.336 213.780,34.200 214.000 C 34.064 214.220,33.524 214.400,33.000 214.400 C 32.476 214.400,31.936 214.580,31.800 214.800 C 31.664 215.020,31.203 215.200,30.776 215.200 C 30.349 215.200,30.000 215.380,30.000 215.600 C 30.000 215.820,29.640 216.000,29.200 216.000 C 28.760 216.000,28.400 216.180,28.400 216.400 C 28.400 216.620,28.085 216.804,27.700 216.809 C 27.315 216.814,26.550 217.170,26.000 217.600 C 25.450 218.030,24.775 218.386,24.500 218.391 C 24.225 218.396,24.000 218.580,24.000 218.800 C 24.000 219.020,23.680 219.200,23.288 219.200 C 22.897 219.200,22.317 219.560,22.000 220.000 C 21.683 220.440,21.175 220.800,20.872 220.800 C 20.569 220.800,19.817 221.340,19.200 222.000 C 18.583 222.660,17.871 223.200,17.617 223.200 C 16.569 223.200,8.437 232.046,8.413 233.212 C 8.406 233.548,8.040 234.083,7.600 234.400 C 7.160 234.717,6.800 235.297,6.800 235.688 C 6.800 236.080,6.620 236.400,6.400 236.400 C 6.180 236.400,6.000 236.678,6.000 237.017 C 6.000 237.356,5.640 238.020,5.200 238.492 C 4.760 238.964,4.400 239.767,4.400 240.275 C 4.400 240.784,4.265 241.201,4.100 241.203 C 3.741 241.207,2.800 243.144,2.800 243.880 C 2.800 244.166,2.620 244.400,2.400 244.400 C 2.180 244.400,2.000 244.839,2.000 245.376 C 2.000 245.913,1.820 246.464,1.600 246.600 C 1.380 246.736,1.200 247.452,1.200 248.190 C 1.200 248.929,0.975 249.608,0.700 249.700 C -0.027 249.942,-0.027 274.858,0.700 275.100 C 0.987 275.196,1.200 275.936,1.200 276.833 C 1.200 277.695,1.380 278.400,1.600 278.400 C 1.820 278.400,2.000 278.839,2.000 279.376 C 2.000 279.913,2.180 280.464,2.400 280.600 C 2.620 280.736,2.800 281.197,2.800 281.624 C 2.800 282.051,2.980 282.400,3.200 282.400 C 3.420 282.400,3.600 282.760,3.600 283.200 C 3.600 283.640,3.780 284.000,4.000 284.000 C 4.220 284.000,4.400 284.360,4.400 284.800 C 4.400 285.240,4.580 285.600,4.800 285.600 C 5.020 285.600,5.200 285.960,5.200 286.400 C 5.200 286.840,5.380 287.200,5.600 287.200 C 5.820 287.200,6.000 287.560,6.000 288.000 C 6.000 288.440,6.180 288.800,6.400 288.800 C 6.620 288.800,6.800 289.070,6.800 289.400 C 6.800 289.730,6.980 290.000,7.200 290.000 C 7.420 290.000,7.600 290.270,7.600 290.600 C 7.600 290.930,7.780 291.200,8.000 291.200 C 8.220 291.200,8.400 291.427,8.400 291.704 C 8.400 291.981,8.810 292.656,9.311 293.204 C 9.813 293.752,10.665 294.830,11.206 295.600 C 12.459 297.384,14.999 299.927,16.800 301.201 C 17.570 301.746,18.722 302.688,19.359 303.296 C 19.997 303.903,20.762 304.400,21.059 304.400 C 21.357 304.400,21.600 304.558,21.600 304.751 C 21.600 304.945,22.140 305.327,22.800 305.600 C 23.460 305.873,24.000 306.255,24.000 306.449 C 24.000 306.642,24.360 306.800,24.800 306.800 C 25.240 306.800,25.600 306.972,25.600 307.182 C 25.600 307.392,26.230 307.682,27.000 307.826 C 27.770 307.971,28.400 308.249,28.400 308.445 C 28.400 308.640,28.760 308.800,29.200 308.800 C 29.640 308.800,30.000 308.980,30.000 309.200 C 30.000 309.420,30.540 309.600,31.200 309.600 C 31.860 309.600,32.400 309.780,32.400 310.000 C 32.400 310.220,32.839 310.400,33.376 310.400 C 33.913 310.400,34.464 310.580,34.600 310.800 C 34.736 311.020,35.377 311.200,36.024 311.200 C 36.671 311.200,37.200 311.380,37.200 311.600 C 37.200 311.820,38.100 312.000,39.200 312.000 C 40.300 312.000,41.200 312.180,41.200 312.400 C 41.200 312.655,44.400 312.800,50.000 312.800 C 55.600 312.800,58.800 312.655,58.800 312.400 C 58.800 312.180,59.700 312.000,60.800 312.000 C 61.900 312.000,62.800 311.820,62.800 311.600 C 62.800 311.380,63.340 311.200,64.000 311.200 C 64.660 311.200,65.200 311.020,65.200 310.800 C 65.200 310.580,65.674 310.400,66.253 310.400 C 66.863 310.400,67.664 309.996,68.153 309.442 C 68.619 308.915,70.758 307.570,72.907 306.454 C 79.481 303.040,85.589 297.810,90.022 291.800 C 92.028 289.080,92.569 288.176,94.629 284.100 L 96.095 281.200 116.757 281.200 L 137.418 281.200 137.909 283.312 C 138.179 284.473,138.400 285.662,138.400 285.955 C 138.400 290.481,146.154 297.898,152.254 299.206 C 155.396 299.880,185.426 299.572,187.000 298.849 C 191.084 296.976,192.030 296.364,194.197 294.197 C 196.443 291.951,197.542 290.208,198.859 286.800 C 199.276 285.720,199.400 282.244,199.400 271.600 L 199.400 257.800 197.929 254.772 C 196.163 251.138,192.969 247.768,189.840 246.237 C 185.099 243.918,186.947 244.000,139.648 244.000 L 96.135 244.000 95.071 241.700 C 91.214 233.367,84.611 225.762,76.900 220.772 L 74.800 219.413 74.800 127.230 C 74.800 62.337,74.671 34.331,74.363 32.624 C 73.052 25.349,70.958 20.234,67.352 15.499 C 66.388 14.234,65.600 13.019,65.600 12.798 C 65.600 12.316,304.345 12.464,306.200 12.948 C 314.216 15.037,321.753 22.102,323.963 29.600 C 324.255 30.590,324.652 31.922,324.847 32.560 C 325.042 33.202,325.200 54.311,325.200 79.876 C 325.200 131.024,325.058 128.190,327.701 129.680 C 330.412 131.208,334.800 132.206,334.800 131.295 C 334.800 131.127,335.205 130.812,335.700 130.595 C 336.195 130.378,336.778 129.795,336.995 129.300 C 337.212 128.805,337.527 128.400,337.695 128.400 C 338.171 128.400,338.076 29.694,337.600 29.400 C 337.380 29.264,337.200 28.533,337.200 27.776 C 337.200 27.019,337.020 26.400,336.800 26.400 C 336.580 26.400,336.400 25.860,336.400 25.200 C 336.400 24.540,336.220 24.000,336.000 24.000 C 335.780 24.000,335.600 23.719,335.600 23.375 C 335.600 22.494,333.192 17.600,332.758 17.600 C 332.561 17.600,332.400 17.280,332.400 16.888 C 332.400 16.497,332.040 15.917,331.600 15.600 C 331.160 15.283,330.800 14.807,330.800 14.542 C 330.800 13.866,323.592 6.800,322.903 6.800 C 322.723 6.800,322.317 6.440,322.000 6.000 C 321.683 5.560,321.103 5.200,320.712 5.200 C 320.320 5.200,320.000 5.048,320.000 4.863 C 320.000 4.677,319.145 4.118,318.100 3.619 C 317.055 3.120,315.887 2.552,315.505 2.356 C 315.123 2.160,314.538 2.000,314.205 2.000 C 313.872 2.000,313.600 1.820,313.600 1.600 C 313.600 1.380,313.075 1.200,312.433 1.200 C 311.792 1.200,311.192 0.975,311.100 0.700 C 310.942 0.226,32.304 -0.178,27.900 0.289 M42.800 12.966 C 52.054 15.225,59.133 21.947,61.574 30.792 C 62.386 33.734,62.400 34.543,62.400 79.492 L 62.400 125.200 37.400 125.200 L 12.400 125.200 12.400 79.620 C 12.400 33.077,12.400 33.089,13.799 29.000 C 16.125 22.205,22.890 15.628,29.600 13.639 C 30.370 13.410,31.540 13.052,32.200 12.843 C 33.983 12.279,40.284 12.351,42.800 12.966 M331.200 143.561 C 330.870 143.733,329.773 144.273,328.762 144.760 C 325.571 146.297,325.200 147.492,325.200 156.226 C 325.200 165.262,326.066 167.471,329.904 168.232 C 330.622 168.374,331.307 168.650,331.428 168.845 C 331.695 169.278,334.800 169.323,334.800 168.895 C 334.800 168.727,335.205 168.412,335.700 168.195 C 336.195 167.978,336.778 167.395,336.995 166.900 C 337.212 166.405,337.527 166.000,337.695 166.000 C 337.863 166.000,338.000 161.590,338.000 156.200 C 338.000 149.933,337.856 146.400,337.600 146.400 C 337.380 146.400,337.200 146.207,337.200 145.971 C 337.200 144.315,332.992 142.624,331.200 143.561 M363.600 156.400 C 363.600 156.620,363.240 156.800,362.800 156.800 C 362.360 156.800,362.000 156.980,362.000 157.200 C 362.000 157.420,361.730 157.600,361.400 157.600 C 361.070 157.600,360.080 158.320,359.200 159.200 C 358.320 160.080,357.600 161.070,357.600 161.400 C 357.600 161.730,357.420 162.000,357.200 162.000 C 356.980 162.000,356.800 162.360,356.800 162.800 C 356.800 163.240,356.620 163.600,356.400 163.600 C 356.143 163.600,356.000 167.667,356.000 175.000 C 356.000 182.333,356.143 186.400,356.400 186.400 C 356.620 186.400,356.800 186.760,356.800 187.200 C 356.800 187.640,356.980 188.000,357.200 188.000 C 357.420 188.000,357.600 188.236,357.600 188.525 C 357.600 189.327,360.774 192.400,361.603 192.400 C 361.821 192.400,362.000 192.580,362.000 192.800 C 362.000 193.020,362.360 193.200,362.800 193.200 C 363.240 193.200,363.600 193.380,363.600 193.600 C 363.600 193.857,367.667 194.000,375.000 194.000 C 382.333 194.000,386.400 193.857,386.400 193.600 C 386.400 193.380,386.760 193.200,387.200 193.200 C 387.640 193.200,388.000 193.020,388.000 192.800 C 388.000 192.580,388.270 192.400,388.600 192.400 C 388.930 192.400,389.200 192.220,389.200 192.000 C 389.200 191.780,389.380 191.600,389.600 191.600 C 390.119 191.600,391.600 190.119,391.600 189.600 C 391.600 189.380,391.780 189.200,392.000 189.200 C 392.220 189.200,392.400 188.930,392.400 188.600 C 392.400 188.270,392.580 188.000,392.800 188.000 C 393.020 188.000,393.200 187.640,393.200 187.200 C 393.200 186.760,393.380 186.400,393.600 186.400 C 393.857 186.400,394.000 182.333,394.000 175.000 C 394.000 167.667,393.857 163.600,393.600 163.600 C 393.380 163.600,393.200 163.240,393.200 162.800 C 393.200 162.360,393.020 162.000,392.800 162.000 C 392.580 162.000,392.400 161.751,392.400 161.447 C 392.400 160.728,389.272 157.600,388.553 157.600 C 388.249 157.600,388.000 157.420,388.000 157.200 C 388.000 156.980,387.640 156.800,387.200 156.800 C 386.760 156.800,386.400 156.620,386.400 156.400 C 386.400 156.143,382.333 156.000,375.000 156.000 C 367.667 156.000,363.600 156.143,363.600 156.400 M380.800 175.000 L 380.800 180.800 375.000 180.800 L 369.200 180.800 369.200 175.000 L 369.200 169.200 375.000 169.200 L 380.800 169.200 380.800 175.000 M331.428 181.155 C 331.307 181.350,330.622 181.626,329.904 181.768 C 326.026 182.537,325.200 184.703,325.200 194.112 L 325.200 201.800 323.292 203.443 C 321.518 204.971,320.087 207.214,319.366 209.600 C 319.200 210.150,318.959 215.280,318.832 221.000 L 318.600 231.400 307.600 231.600 C 293.008 231.865,290.628 233.028,288.034 241.160 C 287.310 243.428,287.462 269.316,288.214 271.794 C 289.313 275.419,291.467 278.039,294.571 279.529 C 297.778 281.068,299.186 281.200,312.351 281.200 L 325.209 281.200 325.105 296.900 L 325.000 312.600 306.200 312.600 L 287.400 312.600 287.200 304.800 C 286.909 293.469,284.924 290.090,277.354 288.045 C 274.764 287.345,249.516 287.452,247.141 288.173 C 242.203 289.671,239.671 292.203,238.173 297.141 C 237.452 299.516,237.345 324.764,238.045 327.354 C 239.507 332.768,244.426 337.200,248.972 337.200 C 250.287 337.200,250.400 337.739,250.400 343.984 C 250.400 351.093,251.781 350.433,237.152 350.306 L 225.000 350.200 224.902 334.000 C 224.792 315.637,224.757 315.423,221.610 313.654 L 220.091 312.800 175.000 312.800 L 129.909 312.800 128.404 313.646 C 125.084 315.512,125.200 314.490,125.200 341.978 C 125.200 355.344,125.041 366.802,124.847 367.440 C 124.652 368.078,124.255 369.410,123.963 370.400 C 121.929 377.301,115.334 383.958,108.200 386.311 C 104.537 387.519,103.570 387.649,99.400 387.486 C 95.136 387.319,93.471 387.086,91.800 386.422 C 84.077 383.354,78.050 377.228,76.037 370.400 C 75.745 369.410,75.348 368.078,75.153 367.440 C 74.959 366.802,74.800 358.206,74.800 348.336 C 74.800 327.575,74.811 327.645,71.353 326.020 C 67.213 324.074,64.162 324.587,62.500 327.510 C 61.861 328.633,61.765 370.207,62.400 370.600 C 62.620 370.736,62.800 371.467,62.800 372.224 C 62.800 372.981,62.980 373.600,63.200 373.600 C 63.420 373.600,63.600 374.140,63.600 374.800 C 63.600 375.460,63.780 376.000,64.000 376.000 C 64.220 376.000,64.400 376.272,64.400 376.605 C 64.400 376.938,64.560 377.523,64.756 377.905 C 64.952 378.287,65.520 379.455,66.019 380.500 C 66.518 381.545,67.077 382.400,67.263 382.400 C 67.448 382.400,67.600 382.720,67.600 383.112 C 67.600 383.503,67.960 384.083,68.400 384.400 C 68.840 384.717,69.200 385.193,69.200 385.458 C 69.200 386.134,76.408 393.200,77.097 393.200 C 77.277 393.200,77.683 393.560,78.000 394.000 C 78.317 394.440,78.897 394.800,79.288 394.800 C 79.680 394.800,80.000 394.980,80.000 395.200 C 80.000 395.420,80.270 395.600,80.600 395.600 C 80.930 395.600,81.200 395.780,81.200 396.000 C 81.200 396.220,81.465 396.400,81.788 396.400 C 82.111 396.400,83.017 396.760,83.800 397.200 C 84.583 397.640,85.489 398.000,85.812 398.000 C 86.135 398.000,86.400 398.180,86.400 398.400 C 86.400 398.620,86.925 398.800,87.567 398.800 C 88.208 398.800,88.808 399.025,88.900 399.300 C 89.145 400.036,373.255 400.036,373.500 399.300 C 373.592 399.025,374.192 398.800,374.833 398.800 C 375.475 398.800,376.000 398.620,376.000 398.400 C 376.000 398.180,376.272 398.000,376.605 398.000 C 376.938 398.000,377.523 397.840,377.905 397.644 C 378.287 397.448,379.455 396.880,380.500 396.381 C 381.545 395.882,382.400 395.323,382.400 395.137 C 382.400 394.952,382.720 394.800,383.112 394.800 C 383.503 394.800,384.083 394.440,384.400 394.000 C 384.717 393.560,385.221 393.200,385.521 393.200 C 386.230 393.200,393.200 386.230,393.200 385.521 C 393.200 385.221,393.560 384.717,394.000 384.400 C 394.440 384.083,394.800 383.503,394.800 383.112 C 394.800 382.720,394.950 382.400,395.133 382.400 C 395.595 382.400,398.000 377.656,398.000 376.744 C 398.000 376.335,398.180 376.000,398.400 376.000 C 398.620 376.000,398.800 375.475,398.800 374.833 C 398.800 374.192,399.025 373.592,399.300 373.500 C 399.693 373.369,399.822 367.111,399.904 344.367 C 400.014 313.496,400.035 313.864,398.093 313.005 C 397.602 312.788,397.200 312.473,397.200 312.305 C 397.200 312.137,383.880 312.000,367.600 312.000 L 338.000 312.000 338.000 291.800 C 338.000 280.690,337.863 271.600,337.695 271.600 C 337.527 271.600,337.212 271.195,336.995 270.700 C 336.778 270.205,336.195 269.622,335.700 269.405 C 335.205 269.188,334.800 268.873,334.800 268.705 C 334.800 268.537,327.060 268.400,317.600 268.400 L 300.400 268.400 300.400 256.200 L 300.400 244.000 310.200 244.000 C 318.402 244.000,320.000 244.093,320.000 244.568 C 320.000 245.308,323.492 248.800,324.232 248.800 C 324.544 248.800,324.800 248.980,324.800 249.200 C 324.800 249.420,325.160 249.600,325.600 249.600 C 326.040 249.600,326.400 249.780,326.400 250.000 C 326.400 250.261,332.467 250.400,343.800 250.400 C 355.133 250.400,361.200 250.261,361.200 250.000 C 361.200 249.780,361.560 249.600,362.000 249.600 C 362.440 249.600,362.800 249.420,362.800 249.200 C 362.800 248.980,363.075 248.800,363.411 248.800 C 364.204 248.800,367.600 245.404,367.600 244.611 C 367.600 244.275,367.780 244.000,368.000 244.000 C 368.220 244.000,368.400 243.640,368.400 243.200 C 368.400 242.760,368.580 242.400,368.800 242.400 C 369.061 242.400,369.200 236.333,369.200 225.000 C 369.200 213.667,369.061 207.600,368.800 207.600 C 368.580 207.600,368.400 207.240,368.400 206.800 C 368.400 206.360,368.220 206.000,368.000 206.000 C 367.780 206.000,367.600 205.725,367.600 205.389 C 367.600 204.596,364.204 201.200,363.411 201.200 C 363.075 201.200,362.800 201.020,362.800 200.800 C 362.800 200.580,362.440 200.400,362.000 200.400 C 361.560 200.400,361.200 200.220,361.200 200.000 C 361.200 199.743,357.067 199.600,349.600 199.600 L 338.000 199.600 338.000 191.800 C 338.000 187.510,337.863 184.000,337.695 184.000 C 337.527 184.000,337.212 183.595,336.995 183.100 C 336.778 182.605,336.195 182.022,335.700 181.805 C 335.205 181.588,334.800 181.273,334.800 181.105 C 334.800 180.677,331.695 180.722,331.428 181.155 M356.000 225.000 L 356.000 237.200 343.800 237.200 L 331.600 237.200 331.600 225.000 L 331.600 212.800 343.800 212.800 L 356.000 212.800 356.000 225.000 M56.000 225.984 C 57.210 226.201,58.877 226.493,59.704 226.633 C 60.531 226.774,61.306 227.049,61.427 227.244 C 61.548 227.440,61.918 227.600,62.249 227.600 C 64.466 227.600,72.714 232.776,76.359 236.455 C 80.344 240.478,85.600 249.461,85.600 252.251 C 85.600 252.564,86.405 253.626,87.389 254.611 L 89.179 256.400 135.261 256.400 C 183.872 256.400,182.993 256.368,185.135 258.200 C 187.025 259.817,187.200 260.972,187.200 271.830 C 187.200 282.358,187.080 283.255,185.424 285.135 C 184.107 286.629,182.207 287.200,178.551 287.200 L 175.200 287.200 175.200 283.195 C 175.200 279.094,174.951 278.195,173.378 276.622 C 170.340 273.584,164.937 274.341,162.968 278.080 C 162.587 278.806,162.400 280.479,162.400 283.180 L 162.400 287.200 158.996 287.200 C 152.153 287.200,150.687 285.666,150.400 278.200 C 150.170 272.212,149.630 270.809,146.978 269.307 L 145.400 268.413 117.559 268.407 L 89.718 268.400 88.369 269.310 C 86.662 270.460,85.491 272.193,84.618 274.860 C 79.221 291.361,61.283 302.036,44.000 299.033 C 8.053 292.788,1.508 244.577,34.475 228.874 C 35.946 228.173,37.420 227.600,37.751 227.600 C 38.082 227.600,38.452 227.440,38.573 227.244 C 38.802 226.872,39.594 226.700,44.158 226.025 C 45.675 225.800,47.025 225.505,47.158 225.367 C 47.455 225.061,53.007 225.448,56.000 225.984 M44.800 237.583 C 44.250 237.759,42.990 238.141,42.000 238.433 C 40.341 238.921,39.245 239.432,36.785 240.862 C 31.745 243.793,26.741 250.516,25.371 256.200 C 24.866 258.294,24.714 267.274,25.176 267.736 C 25.409 267.969,25.600 268.583,25.600 269.099 C 25.600 269.616,25.960 270.784,26.400 271.694 C 26.840 272.605,27.200 273.586,27.200 273.875 C 27.200 274.164,27.380 274.400,27.600 274.400 C 27.820 274.400,28.000 274.593,28.000 274.828 C 28.000 275.063,28.537 276.037,29.194 276.991 C 39.947 292.620,64.710 290.754,72.595 273.722 C 73.186 272.445,73.834 271.087,74.035 270.705 C 74.236 270.323,74.400 269.594,74.400 269.085 C 74.400 268.576,74.591 267.969,74.824 267.736 C 75.617 266.943,75.012 256.699,74.023 254.200 C 70.974 246.489,64.823 240.437,58.000 238.435 C 57.010 238.144,55.678 237.748,55.040 237.553 C 53.620 237.121,46.178 237.142,44.800 237.583 M55.406 251.020 C 63.354 254.780,65.192 265.229,58.996 271.425 C 55.745 274.676,50.060 276.188,46.519 274.744 C 43.370 273.460,42.631 273.009,41.011 271.389 C 31.107 261.486,42.738 245.027,55.406 251.020 M363.800 262.400 C 363.664 262.620,363.203 262.800,362.776 262.800 C 362.349 262.800,362.000 262.980,362.000 263.200 C 362.000 263.420,361.796 263.600,361.547 263.600 C 360.848 263.600,357.600 267.013,357.600 267.747 C 357.600 268.106,357.420 268.400,357.200 268.400 C 356.980 268.400,356.800 268.760,356.800 269.200 C 356.800 269.640,356.620 270.000,356.400 270.000 C 356.143 270.000,356.000 274.000,356.000 281.200 C 356.000 288.400,356.143 292.400,356.400 292.400 C 356.620 292.400,356.800 292.760,356.800 293.200 C 356.800 293.640,356.980 294.000,357.200 294.000 C 357.420 294.000,357.600 294.294,357.600 294.653 C 357.600 295.387,360.848 298.800,361.547 298.800 C 361.796 298.800,362.000 298.980,362.000 299.200 C 362.000 299.420,362.349 299.600,362.776 299.600 C 363.203 299.600,363.664 299.780,363.800 300.000 C 363.955 300.251,368.130 300.400,375.000 300.400 C 381.870 300.400,386.045 300.251,386.200 300.000 C 386.336 299.780,386.797 299.600,387.224 299.600 C 387.651 299.600,388.000 299.420,388.000 299.200 C 388.000 298.980,388.204 298.800,388.453 298.800 C 389.152 298.800,392.400 295.387,392.400 294.653 C 392.400 294.294,392.580 294.000,392.800 294.000 C 393.020 294.000,393.200 293.640,393.200 293.200 C 393.200 292.760,393.380 292.400,393.600 292.400 C 393.857 292.400,394.000 288.400,394.000 281.200 C 394.000 274.000,393.857 270.000,393.600 270.000 C 393.380 270.000,393.200 269.640,393.200 269.200 C 393.200 268.760,393.020 268.400,392.800 268.400 C 392.580 268.400,392.400 268.106,392.400 267.747 C 392.400 267.013,389.152 263.600,388.453 263.600 C 388.204 263.600,388.000 263.420,388.000 263.200 C 388.000 262.980,387.651 262.800,387.224 262.800 C 386.797 262.800,386.336 262.620,386.200 262.400 C 386.045 262.149,381.870 262.000,375.000 262.000 C 368.130 262.000,363.955 262.149,363.800 262.400 M380.800 281.200 L 380.800 287.200 375.000 287.200 L 369.200 287.200 369.200 281.200 L 369.200 275.200 375.000 275.200 L 380.800 275.200 380.800 281.200 M274.800 312.600 L 274.800 324.800 262.600 324.800 L 250.400 324.800 250.400 312.600 L 250.400 300.400 262.600 300.400 L 274.800 300.400 274.800 312.600 M212.806 339.200 C 213.035 354.966,213.019 354.869,215.848 358.000 C 217.607 359.948,219.323 361.033,221.857 361.802 C 224.363 362.562,250.484 362.677,252.772 361.939 C 257.699 360.347,260.404 357.739,261.836 353.200 C 262.010 352.650,262.252 348.870,262.376 344.800 L 262.600 337.400 270.400 337.200 C 281.797 336.908,285.821 334.381,287.133 326.692 L 287.422 325.000 337.511 324.898 L 387.600 324.797 387.586 345.098 C 387.572 365.167,387.470 367.045,386.201 370.600 C 383.183 379.060,376.700 384.785,367.600 387.029 C 365.294 387.598,128.849 387.916,128.284 387.351 C 128.147 387.214,128.730 386.269,129.580 385.251 C 133.010 381.142,135.319 375.829,136.593 369.111 C 137.086 366.515,137.200 362.086,137.200 345.622 C 137.200 334.463,137.321 325.212,137.469 325.065 C 137.616 324.917,154.581 324.842,175.169 324.898 L 212.600 325.000 212.806 339.200 " stroke="none" fill="#04529a" fill-rule="evenodd"></path><path id="path1" d="M35.400 13.200 C 34.960 13.389,33.846 13.556,32.924 13.572 C 32.002 13.587,31.136 13.780,31.000 14.000 C 30.864 14.220,30.324 14.400,29.800 14.400 C 29.276 14.400,28.736 14.580,28.600 14.800 C 28.464 15.020,28.003 15.200,27.576 15.200 C 27.149 15.200,26.800 15.380,26.800 15.600 C 26.800 15.820,26.440 16.000,26.000 16.000 C 25.560 16.000,25.200 16.168,25.200 16.373 C 25.200 16.578,24.806 16.871,24.324 17.024 C 23.121 17.406,17.727 22.729,17.162 24.091 C 16.910 24.701,16.545 25.200,16.351 25.200 C 16.158 25.200,16.000 25.560,16.000 26.000 C 16.000 26.440,15.820 26.800,15.600 26.800 C 15.380 26.800,15.200 27.149,15.200 27.576 C 15.200 28.003,15.020 28.464,14.800 28.600 C 14.580 28.736,14.400 29.251,14.400 29.744 C 14.400 30.237,14.237 30.811,14.039 31.020 C 13.215 31.887,13.092 37.417,12.944 80.100 L 12.790 124.800 31.395 124.800 L 50.000 124.800 49.987 81.700 C 49.973 36.705,49.854 33.094,48.224 28.200 C 46.615 23.368,43.808 18.916,40.093 15.300 C 37.539 12.815,36.930 12.542,35.400 13.200 M66.400 12.992 C 66.400 13.097,67.119 14.132,67.998 15.292 C 70.889 19.106,73.382 24.857,74.764 30.906 C 75.072 32.251,75.200 60.205,75.201 125.906 L 75.201 219.000 77.038 220.161 C 84.437 224.835,91.572 232.895,95.221 240.700 L 96.577 243.600 140.560 243.600 C 172.186 243.600,184.945 243.727,185.972 244.053 C 192.645 246.168,197.112 250.360,199.402 256.657 C 200.298 259.120,200.759 278.315,200.049 283.590 C 198.902 292.115,192.432 298.790,184.156 299.986 C 180.561 300.505,157.018 300.502,153.400 299.981 C 145.014 298.774,137.238 290.477,137.205 282.700 L 137.200 281.600 116.900 281.606 L 96.600 281.613 94.420 285.806 C 93.220 288.113,92.095 290.000,91.920 290.000 C 91.744 290.000,91.600 290.191,91.600 290.423 C 91.600 292.453,81.014 302.639,75.800 305.627 C 73.125 307.160,69.827 308.774,69.343 308.787 C 68.525 308.810,68.400 309.956,68.400 317.433 L 68.400 324.800 69.362 324.800 C 71.035 324.800,73.445 326.387,74.352 328.086 C 75.178 329.635,75.200 330.114,75.200 346.938 C 75.200 366.992,75.380 368.519,78.434 374.417 C 86.902 390.770,111.664 391.162,121.144 375.094 C 124.694 369.077,124.800 368.073,124.800 340.462 L 124.800 316.723 125.687 315.462 C 126.746 313.955,127.151 313.559,128.310 312.900 C 128.999 312.508,139.087 312.400,175.000 312.400 L 220.811 312.400 222.137 313.269 C 225.283 315.331,225.200 314.793,225.200 333.194 L 225.200 349.600 237.400 349.600 L 249.600 349.600 249.600 343.600 L 249.600 337.600 248.195 337.600 C 247.422 337.600,246.477 337.441,246.095 337.247 C 245.713 337.052,244.860 336.647,244.200 336.347 C 242.022 335.355,238.993 331.962,238.062 329.473 C 237.051 326.771,236.707 298.846,237.656 296.519 C 238.940 293.370,239.391 292.631,241.011 291.011 C 242.631 289.391,243.370 288.940,246.519 287.656 C 248.846 286.707,276.771 287.051,279.473 288.062 C 281.962 288.993,285.355 292.022,286.347 294.200 C 286.647 294.860,287.052 295.713,287.247 296.095 C 287.441 296.477,287.600 300.302,287.600 304.595 L 287.600 312.400 306.200 312.400 L 324.800 312.400 324.800 297.019 L 324.800 281.639 310.900 281.519 L 297.000 281.400 294.795 280.366 C 293.583 279.797,291.818 278.543,290.873 277.579 C 289.280 275.955,288.896 275.322,287.656 272.281 C 286.736 270.025,287.048 242.037,288.022 239.434 C 290.627 232.470,293.645 231.200,307.588 231.200 L 318.353 231.200 318.476 220.300 L 318.600 209.400 319.720 207.119 C 320.366 205.805,321.679 204.084,322.820 203.058 L 324.800 201.278 324.800 193.433 C 324.800 185.041,324.861 184.734,326.947 182.707 C 328.019 181.664,328.591 181.414,330.600 181.110 C 331.359 180.995,331.400 180.682,331.400 175.000 C 331.400 169.318,331.359 169.005,330.600 168.890 C 328.591 168.586,328.019 168.336,326.947 167.293 C 324.856 165.261,324.800 164.974,324.800 156.360 C 324.800 146.415,326.034 143.600,330.394 143.600 L 331.600 143.600 331.600 137.683 L 331.600 131.766 329.885 131.307 C 327.783 130.745,326.250 129.584,325.424 127.929 C 324.870 126.817,324.800 121.616,324.800 81.238 C 324.800 33.665,324.803 33.768,323.089 28.892 C 320.536 21.633,313.698 15.609,305.733 13.602 C 302.759 12.852,66.400 12.250,66.400 12.992 M109.619 32.101 C 112.679 34.164,112.585 33.457,112.724 55.400 C 112.854 76.041,112.767 77.283,111.062 79.138 C 108.193 82.260,102.950 81.834,100.798 78.304 C 100.039 77.059,100.003 76.259,100.001 60.550 L 100.000 44.100 98.900 43.879 C 93.157 42.725,91.741 34.964,96.743 32.063 C 98.986 30.763,107.671 30.789,109.619 32.101 M159.619 32.101 C 162.679 34.164,162.585 33.457,162.724 55.400 C 162.901 83.583,164.673 81.200,143.545 81.200 C 122.857 81.200,124.800 83.780,124.800 56.307 C 124.800 33.288,124.719 33.813,128.600 31.667 C 130.387 30.679,158.084 31.067,159.619 32.101 M190.126 31.650 C 194.027 33.659,194.000 33.486,194.000 56.200 C 194.000 72.269,193.896 76.151,193.435 77.251 C 191.403 82.102,184.568 82.667,181.959 78.200 C 181.324 77.112,181.256 75.467,181.229 60.532 L 181.200 44.064 180.084 43.818 C 173.942 42.469,173.001 34.763,178.600 31.667 C 179.668 31.076,188.985 31.062,190.126 31.650 M240.126 31.650 C 244.027 33.659,244.000 33.486,244.000 56.200 C 244.000 77.356,243.979 77.591,241.935 79.450 C 240.039 81.174,239.788 81.200,225.000 81.200 C 204.218 81.200,206.000 83.545,206.000 56.200 C 206.000 33.521,205.958 33.792,209.800 31.667 C 210.927 31.044,238.919 31.028,240.126 31.650 M271.326 31.650 C 275.233 33.662,275.200 33.450,275.200 56.494 C 275.200 75.923,275.177 76.533,274.379 77.952 C 271.953 82.268,265.616 82.407,263.159 78.200 C 262.524 77.112,262.456 75.467,262.429 60.543 L 262.400 44.087 261.300 43.812 C 255.196 42.289,254.263 34.729,259.800 31.667 C 260.868 31.076,270.185 31.062,271.326 31.650 M303.198 32.047 C 306.483 33.893,306.400 33.266,306.398 56.254 L 306.396 76.600 305.475 78.122 C 302.891 82.389,297.109 82.389,294.525 78.122 L 293.604 76.600 293.602 60.363 L 293.600 44.127 292.021 43.654 C 286.669 42.050,285.734 34.902,290.496 31.998 C 292.478 30.790,301.020 30.823,303.198 32.047 M137.694 56.300 L 137.800 68.600 143.800 68.600 L 149.800 68.600 149.906 56.300 L 150.012 44.000 143.800 44.000 L 137.588 44.000 137.694 56.300 M218.894 56.300 L 219.000 68.600 225.000 68.600 L 231.000 68.600 231.106 56.300 L 231.212 44.000 225.000 44.000 L 218.788 44.000 218.894 56.300 M128.304 100.798 C 131.304 102.627,131.197 101.734,131.197 125.000 C 131.197 152.772,133.274 149.996,112.494 149.999 C 91.649 150.001,93.600 152.581,93.600 125.000 C 93.600 97.428,91.619 100.060,112.400 100.026 C 126.287 100.004,127.064 100.042,128.304 100.798 M159.641 100.903 C 162.815 103.012,162.800 102.901,162.800 125.000 C 162.800 144.563,162.797 144.637,161.900 146.412 C 159.603 150.959,153.385 151.347,150.798 147.104 C 150.039 145.859,150.003 145.059,150.001 129.315 L 150.000 112.831 148.452 112.414 C 143.031 110.954,141.877 104.096,146.519 100.925 C 148.487 99.581,157.628 99.566,159.641 100.903 M190.126 100.450 C 194.027 102.459,194.000 102.286,194.000 125.000 C 194.000 141.069,193.896 144.951,193.435 146.051 C 191.403 150.902,184.568 151.467,181.959 147.000 C 181.324 145.912,181.256 144.265,181.229 129.308 L 181.200 112.815 180.100 112.556 C 174.335 111.199,172.962 103.752,177.943 100.863 C 179.623 99.889,188.456 99.590,190.126 100.450 M240.126 100.450 C 244.027 102.459,244.000 102.286,244.000 125.000 C 244.000 146.156,243.979 146.391,241.935 148.250 C 240.039 149.974,239.788 150.000,225.000 150.000 C 204.218 150.000,206.000 152.345,206.000 125.000 C 206.000 102.321,205.958 102.592,209.800 100.467 C 210.927 99.844,238.919 99.828,240.126 100.450 M271.996 100.846 C 275.259 102.680,275.200 102.237,275.200 125.000 C 275.200 144.752,275.184 145.154,274.350 146.717 C 272.019 151.084,265.670 151.101,263.219 146.746 C 262.431 145.346,262.400 144.673,262.400 129.053 L 262.400 112.815 261.300 112.556 C 255.197 111.119,254.256 103.533,259.800 100.467 C 261.360 99.604,270.279 99.881,271.996 100.846 M303.387 100.900 C 306.489 102.929,306.400 102.220,306.400 125.000 C 306.400 144.704,306.376 145.333,305.581 146.746 C 303.112 151.134,296.888 151.134,294.419 146.746 C 293.631 145.346,293.600 144.673,293.600 129.062 L 293.600 112.832 292.024 112.360 C 286.837 110.806,285.834 103.899,290.359 100.901 C 292.406 99.544,301.314 99.544,303.387 100.900 M106.400 125.000 L 106.400 137.200 112.600 137.200 L 118.800 137.200 118.800 125.000 L 118.800 112.800 112.600 112.800 L 106.400 112.800 106.400 125.000 M218.800 125.000 L 218.800 137.200 225.000 137.200 L 231.200 137.200 231.200 125.000 L 231.200 112.800 225.000 112.800 L 218.800 112.800 218.800 125.000 M109.120 169.362 C 112.820 171.287,112.868 171.629,112.724 194.600 C 112.604 213.534,112.572 214.248,111.778 215.599 C 109.425 219.605,103.791 219.950,101.032 216.256 C 100.228 215.180,100.193 214.574,100.000 198.287 L 99.800 181.432 98.592 181.185 C 93.192 180.082,91.907 172.031,96.714 169.422 C 98.220 168.604,107.577 168.559,109.120 169.362 M159.120 169.362 C 162.820 171.287,162.868 171.629,162.724 194.600 C 162.555 221.262,164.469 218.800,143.921 218.800 C 128.544 218.800,128.338 218.775,126.600 216.738 C 124.767 214.589,124.800 215.013,124.800 193.760 C 124.800 166.202,122.852 168.800,143.514 168.800 C 155.210 168.800,158.250 168.909,159.120 169.362 M191.288 169.800 C 193.993 171.790,194.000 171.852,194.000 193.747 C 194.000 209.861,193.896 213.751,193.435 214.851 C 191.417 219.669,184.809 220.227,182.131 215.806 C 181.464 214.705,181.383 213.158,181.200 198.016 L 181.000 181.433 179.758 181.179 C 174.423 180.088,173.159 172.956,177.721 169.682 C 179.513 168.395,189.496 168.482,191.288 169.800 M241.288 169.800 C 243.993 171.790,244.000 171.852,244.000 193.747 C 244.000 214.961,243.980 215.191,241.935 217.050 C 240.039 218.774,239.788 218.800,225.000 218.800 C 204.211 218.800,206.000 221.166,206.000 193.677 C 206.000 171.503,205.972 171.737,208.899 169.690 L 210.200 168.781 225.200 168.890 C 239.477 168.995,240.252 169.039,241.288 169.800 M272.254 169.693 C 275.280 171.767,275.200 171.117,275.200 193.506 C 275.200 209.828,275.096 213.750,274.635 214.851 C 273.131 218.440,269.003 219.865,265.618 217.962 C 262.565 216.246,262.624 216.613,262.400 198.063 L 262.200 181.525 260.662 180.997 C 255.507 179.225,254.494 172.757,258.893 169.700 C 260.847 168.343,270.276 168.338,272.254 169.693 M303.377 169.581 C 304.024 170.008,304.968 171.042,305.475 171.878 L 306.396 173.400 306.398 193.746 C 306.400 213.729,306.385 214.118,305.553 215.598 C 303.264 219.671,296.961 219.822,294.564 215.862 C 293.854 214.689,293.786 213.429,293.600 198.063 L 293.400 181.525 291.855 180.994 C 286.479 179.147,285.755 172.537,290.600 169.544 C 292.409 168.427,301.666 168.453,303.377 169.581 M137.877 181.456 C 137.725 181.609,137.600 187.193,137.600 193.867 L 137.600 206.000 143.806 206.000 L 150.012 206.000 149.906 193.700 L 149.800 181.400 143.977 181.290 C 140.774 181.229,138.029 181.304,137.877 181.456 M219.077 181.456 C 218.925 181.609,218.800 187.193,218.800 193.867 L 218.800 206.000 225.006 206.000 L 231.212 206.000 231.106 193.700 L 231.000 181.400 225.177 181.290 C 221.974 181.229,219.229 181.304,219.077 181.456 M46.000 251.042 C 37.609 254.080,35.069 264.505,41.188 270.787 C 51.136 281.000,66.925 269.710,60.675 256.853 C 58.202 251.764,51.420 249.079,46.000 251.042 M137.905 347.100 C 137.773 367.906,137.724 369.145,136.929 371.900 L 136.091 374.800 250.469 374.800 C 327.350 374.800,365.461 374.665,366.723 374.389 C 367.755 374.162,369.500 373.779,370.600 373.536 C 375.785 372.392,382.003 368.507,385.700 364.101 L 387.200 362.313 387.200 343.756 L 387.200 325.200 337.692 325.200 L 288.183 325.200 287.733 327.570 C 286.294 335.142,281.416 337.994,269.900 337.998 L 262.800 338.000 262.800 345.762 C 262.800 355.081,262.147 356.973,257.750 360.400 C 254.623 362.838,254.941 362.800,237.386 362.800 C 227.058 362.800,221.158 362.656,221.000 362.400 C 220.864 362.180,220.403 362.000,219.976 362.000 C 219.549 362.000,219.200 361.820,219.200 361.600 C 219.200 361.380,218.934 361.200,218.609 361.200 C 217.433 361.200,213.717 356.960,212.841 354.617 C 212.047 352.496,212.000 351.610,212.000 338.785 L 212.000 325.200 175.022 325.200 L 138.044 325.200 137.905 347.100 " stroke="none" fill="#ebedf8" fill-rule="evenodd"></path><path id="path2" d="M66.000 12.700 C 66.000 12.971,145.250 12.970,259.800 12.698 C 283.340 12.642,249.365 12.552,184.300 12.498 C 119.235 12.444,66.000 12.535,66.000 12.700 M32.198 13.206 C 24.674 14.703,17.274 21.031,14.432 28.400 C 13.372 31.150,12.251 37.363,13.169 35.400 C 13.375 34.960,13.556 33.846,13.572 32.924 C 13.587 32.002,13.780 31.136,14.000 31.000 C 14.220 30.864,14.400 30.324,14.400 29.800 C 14.400 29.276,14.580 28.736,14.800 28.600 C 15.020 28.464,15.200 28.003,15.200 27.576 C 15.200 27.149,15.380 26.800,15.600 26.800 C 15.820 26.800,16.000 26.440,16.000 26.000 C 16.000 25.560,16.168 25.200,16.373 25.200 C 16.578 25.200,16.871 24.806,17.024 24.324 C 17.406 23.121,22.729 17.727,24.091 17.162 C 24.701 16.910,25.200 16.545,25.200 16.351 C 25.200 16.158,25.560 16.000,26.000 16.000 C 26.440 16.000,26.800 15.820,26.800 15.600 C 26.800 15.380,27.149 15.200,27.576 15.200 C 28.003 15.200,28.464 15.020,28.600 14.800 C 28.736 14.580,29.276 14.400,29.800 14.400 C 30.324 14.400,30.864 14.220,31.000 14.000 C 31.136 13.780,32.002 13.587,32.924 13.572 C 33.846 13.556,34.960 13.389,35.400 13.200 C 36.463 12.743,34.507 12.747,32.198 13.206 M40.093 15.300 C 43.808 18.916,46.615 23.368,48.224 28.200 C 49.854 33.094,49.973 36.705,49.987 81.700 L 50.000 124.800 56.200 124.800 L 62.400 124.800 62.386 81.500 C 62.371 36.301,62.116 29.661,60.354 28.571 C 60.159 28.451,60.000 28.003,60.000 27.576 C 60.000 27.149,59.820 26.800,59.600 26.800 C 59.380 26.800,59.200 26.440,59.200 26.000 C 59.200 25.560,59.020 25.200,58.800 25.200 C 58.580 25.200,58.400 24.921,58.400 24.579 C 58.400 22.425,50.012 15.856,45.445 14.433 C 37.875 12.074,36.935 12.227,40.093 15.300 M304.833 13.343 C 304.925 13.421,305.630 13.601,306.400 13.742 C 307.385 13.923,307.622 13.882,307.200 13.606 C 306.658 13.250,304.437 13.003,304.833 13.343 M308.400 14.288 C 308.730 14.411,309.855 14.940,310.900 15.463 C 311.945 15.986,312.800 16.323,312.800 16.213 C 312.800 15.900,308.886 13.996,308.313 14.032 C 307.979 14.052,308.009 14.141,308.400 14.288 M317.620 20.229 C 318.819 21.566,320.475 23.811,321.300 25.220 C 322.125 26.629,322.800 27.584,322.800 27.342 C 322.800 26.504,318.893 20.992,317.171 19.400 C 315.684 18.026,315.748 18.144,317.620 20.229 M73.634 27.600 C 73.646 27.930,73.811 28.560,74.000 29.000 L 74.344 29.800 74.366 29.000 C 74.378 28.560,74.213 27.930,74.000 27.600 C 73.655 27.067,73.615 27.067,73.634 27.600 M74.691 33.600 C 74.812 35.250,74.976 36.675,75.055 36.767 C 75.357 37.114,75.128 32.163,74.808 31.400 C 74.610 30.927,74.562 31.827,74.691 33.600 M324.080 32.200 C 324.080 32.640,324.224 33.450,324.400 34.000 C 324.654 34.792,324.720 34.833,324.720 34.200 C 324.720 33.760,324.576 32.950,324.400 32.400 C 324.146 31.608,324.080 31.567,324.080 32.200 M124.956 35.771 C 124.835 36.085,124.804 36.760,124.886 37.271 C 124.995 37.954,125.088 37.804,125.237 36.700 C 125.447 35.147,125.336 34.781,124.956 35.771 M174.961 35.758 C 174.843 36.065,174.808 37.010,174.883 37.858 C 175.010 39.287,175.034 39.246,175.210 37.300 C 175.404 35.156,175.341 34.767,174.961 35.758 M193.786 56.200 C 193.786 67.420,193.837 72.068,193.900 66.528 C 193.962 60.988,193.962 51.808,193.900 46.128 C 193.837 40.448,193.786 44.980,193.786 56.200 M206.186 56.200 C 206.186 67.420,206.237 72.068,206.300 66.528 C 206.362 60.988,206.362 51.808,206.300 46.128 C 206.237 40.448,206.186 44.980,206.186 56.200 M243.786 56.200 C 243.786 67.420,243.837 72.068,243.900 66.528 C 243.962 60.988,243.962 51.808,243.900 46.128 C 243.837 40.448,243.786 44.980,243.786 56.200 M256.101 37.400 C 256.105 38.280,256.187 38.593,256.283 38.095 C 256.379 37.598,256.375 36.878,256.275 36.495 C 256.175 36.113,256.096 36.520,256.101 37.400 M112.585 56.400 C 112.585 67.290,112.637 71.745,112.700 66.300 C 112.763 60.855,112.763 51.945,112.700 46.500 C 112.637 41.055,112.585 45.510,112.585 56.400 M162.585 56.400 C 162.585 67.290,162.637 71.745,162.700 66.300 C 162.763 60.855,162.763 51.945,162.700 46.500 C 162.637 41.055,162.585 45.510,162.585 56.400 M12.593 81.000 C 12.593 105.200,12.641 115.041,12.700 102.869 C 12.759 90.697,12.759 70.897,12.700 58.869 C 12.641 46.841,12.593 56.800,12.593 81.000 M140.918 43.898 C 142.633 43.973,145.333 43.972,146.918 43.897 C 148.503 43.821,147.100 43.759,143.800 43.760 C 140.500 43.761,139.203 43.822,140.918 43.898 M222.118 43.898 C 223.833 43.973,226.533 43.972,228.118 43.897 C 229.703 43.821,228.300 43.759,225.000 43.760 C 221.700 43.761,220.403 43.822,222.118 43.898 M174.914 106.200 C 174.917 107.300,174.995 107.703,175.087 107.095 C 175.179 106.486,175.177 105.586,175.082 105.095 C 174.987 104.603,174.911 105.100,174.914 106.200 M274.893 105.600 C 274.893 106.370,274.975 106.685,275.076 106.300 C 275.176 105.915,275.176 105.285,275.076 104.900 C 274.975 104.515,274.893 104.830,274.893 105.600 M193.786 125.000 C 193.786 136.220,193.837 140.868,193.900 135.328 C 193.962 129.788,193.962 120.608,193.900 114.928 C 193.837 109.248,193.786 113.780,193.786 125.000 M206.186 125.000 C 206.186 136.220,206.237 140.868,206.300 135.328 C 206.362 129.788,206.362 120.608,206.300 114.928 C 206.237 109.248,206.186 113.780,206.186 125.000 M243.786 125.000 C 243.786 136.220,243.837 140.868,243.900 135.328 C 243.962 129.788,243.962 120.608,243.900 114.928 C 243.837 109.248,243.786 113.780,243.786 125.000 M256.101 106.200 C 256.105 107.080,256.187 107.393,256.283 106.895 C 256.379 106.398,256.375 105.678,256.275 105.295 C 256.175 104.913,256.096 105.320,256.101 106.200 M162.586 125.000 C 162.586 136.000,162.637 140.442,162.700 134.872 C 162.763 129.302,162.762 120.302,162.700 114.872 C 162.637 109.442,162.585 114.000,162.586 125.000 M144.400 109.464 C 144.400 109.682,144.895 110.297,145.500 110.830 L 146.600 111.800 145.600 110.600 C 145.050 109.940,144.555 109.325,144.500 109.233 C 144.445 109.142,144.400 109.245,144.400 109.464 M109.300 112.697 C 111.005 112.772,113.795 112.772,115.500 112.697 C 117.205 112.622,115.810 112.561,112.400 112.561 C 108.990 112.561,107.595 112.622,109.300 112.697 M221.919 112.698 C 223.744 112.772,226.624 112.772,228.319 112.697 C 230.014 112.622,228.520 112.561,225.000 112.562 C 221.480 112.562,220.094 112.624,221.919 112.698 M324.800 126.176 C 324.800 126.713,324.947 127.244,325.128 127.355 C 325.308 127.467,325.377 127.027,325.282 126.379 C 325.072 124.949,324.800 124.835,324.800 126.176 M325.600 128.264 C 325.600 128.482,326.095 129.097,326.700 129.630 L 327.800 130.600 326.800 129.400 C 326.250 128.740,325.755 128.125,325.700 128.033 C 325.645 127.942,325.600 128.045,325.600 128.264 M109.300 137.497 C 111.005 137.572,113.795 137.572,115.500 137.497 C 117.205 137.422,115.810 137.361,112.400 137.361 C 108.990 137.361,107.595 137.422,109.300 137.497 M221.919 137.498 C 223.744 137.572,226.624 137.572,228.319 137.497 C 230.014 137.422,228.520 137.361,225.000 137.362 C 221.480 137.362,220.094 137.424,221.919 137.498 M274.893 144.400 C 274.893 145.170,274.975 145.485,275.076 145.100 C 275.176 144.715,275.176 144.085,275.076 143.700 C 274.975 143.315,274.893 143.630,274.893 144.400 M328.600 144.000 C 328.308 144.473,328.699 144.473,329.800 144.000 C 330.571 143.669,330.569 143.655,329.724 143.628 C 329.242 143.613,328.736 143.780,328.600 144.000 M325.049 147.815 C 324.912 148.173,324.818 148.856,324.841 149.333 C 324.867 149.881,325.003 149.686,325.210 148.803 C 325.560 147.316,325.465 146.733,325.049 147.815 M324.800 163.776 C 324.800 164.313,324.947 164.844,325.128 164.955 C 325.308 165.067,325.377 164.627,325.282 163.979 C 325.072 162.549,324.800 162.435,324.800 163.776 M327.200 167.554 C 327.200 167.883,329.209 168.924,329.426 168.707 C 329.493 168.640,329.020 168.282,328.374 167.911 C 327.728 167.540,327.200 167.380,327.200 167.554 M1.500 169.984 C 0.004 171.549,-0.000 171.561,-0.000 175.008 L -0.000 178.463 1.538 180.031 L 3.075 181.600 12.478 181.600 L 21.881 181.600 23.041 180.426 C 23.678 179.780,24.425 178.978,24.700 178.643 C 25.308 177.903,25.397 171.600,24.800 171.600 C 24.580 171.600,24.400 171.339,24.400 171.020 C 24.400 170.702,23.798 169.982,23.062 169.420 L 21.724 168.400 12.362 168.407 L 3.000 168.414 1.500 169.984 M174.914 175.000 C 174.917 176.100,174.995 176.503,175.087 175.895 C 175.179 175.286,175.177 174.386,175.082 173.895 C 174.987 173.403,174.911 173.900,174.914 175.000 M193.786 193.800 C 193.786 205.020,193.837 209.668,193.900 204.128 C 193.962 198.588,193.962 189.408,193.900 183.728 C 193.837 178.048,193.786 182.580,193.786 193.800 M206.186 193.800 C 206.186 205.020,206.237 209.668,206.300 204.128 C 206.362 198.588,206.362 189.408,206.300 183.728 C 206.237 178.048,206.186 182.580,206.186 193.800 M243.786 193.800 C 243.786 205.020,243.837 209.668,243.900 204.128 C 243.962 198.588,243.962 189.408,243.900 183.728 C 243.837 178.048,243.786 182.580,243.786 193.800 M256.101 175.000 C 256.105 175.880,256.187 176.193,256.283 175.695 C 256.379 175.198,256.375 174.478,256.275 174.095 C 256.175 173.713,256.096 174.120,256.101 175.000 M112.585 193.600 C 112.585 204.490,112.637 208.945,112.700 203.500 C 112.763 198.055,112.763 189.145,112.700 183.700 C 112.637 178.255,112.585 182.710,112.585 193.600 M162.585 193.600 C 162.585 204.490,162.637 208.945,162.700 203.500 C 162.763 198.055,162.763 189.145,162.700 183.700 C 162.637 178.255,162.585 182.710,162.585 193.600 M328.100 181.688 C 327.605 181.927,327.200 182.279,327.200 182.470 C 327.200 182.746,328.422 182.152,329.567 181.321 C 329.966 181.031,328.920 181.293,328.100 181.688 M324.954 185.377 C 324.832 185.694,324.803 186.279,324.889 186.677 C 324.987 187.128,325.124 186.912,325.254 186.100 C 325.471 184.738,325.330 184.396,324.954 185.377 M2.317 194.219 C 0.274 195.557,0.000 196.251,0.000 200.085 C -0.000 206.303,0.941 206.800,12.727 206.800 L 21.560 206.800 23.380 205.081 L 25.200 203.361 25.200 200.000 L 25.200 196.639 23.380 194.919 L 21.560 193.200 12.680 193.224 C 3.970 193.247,3.772 193.266,2.317 194.219 M322.610 203.233 C 320.877 204.831,318.779 208.343,318.821 209.579 C 318.832 209.920,319.219 209.216,319.681 208.014 C 320.230 206.584,321.252 205.096,322.634 203.714 C 325.139 201.209,325.125 200.916,322.610 203.233 M140.918 206.298 C 142.633 206.373,145.333 206.372,146.918 206.297 C 148.503 206.221,147.100 206.159,143.800 206.160 C 140.500 206.161,139.203 206.222,140.918 206.298 M222.118 206.298 C 223.833 206.373,226.533 206.372,228.118 206.297 C 229.703 206.221,228.300 206.159,225.000 206.160 C 221.700 206.161,220.403 206.222,222.118 206.298 M318.575 220.800 C 318.575 226.630,318.631 229.015,318.699 226.100 C 318.767 223.185,318.767 218.415,318.699 215.500 C 318.631 212.585,318.575 214.970,318.575 220.800 M124.800 213.176 C 124.800 213.823,124.942 214.441,125.116 214.548 C 125.290 214.656,125.361 214.127,125.273 213.372 C 125.076 211.691,124.800 211.577,124.800 213.176 M76.011 219.864 C 76.555 220.229,77.874 221.142,78.942 221.893 C 80.010 222.644,80.764 223.065,80.617 222.827 C 80.294 222.305,75.771 219.200,75.333 219.200 C 75.162 219.200,75.467 219.499,76.011 219.864 M82.088 224.213 C 82.686 224.843,83.247 225.277,83.335 225.179 C 83.423 225.080,82.933 224.565,82.247 224.034 L 81.000 223.069 82.088 224.213 M293.400 232.753 C 292.740 233.165,291.570 234.199,290.801 235.051 L 289.401 236.600 291.001 235.139 C 291.880 234.336,293.230 233.301,294.000 232.841 C 294.770 232.380,295.220 232.003,295.000 232.003 C 294.780 232.003,294.060 232.340,293.400 232.753 M92.760 236.600 C 93.434 237.905,93.988 238.628,93.985 238.200 C 93.983 237.980,93.614 237.350,93.164 236.800 C 92.621 236.136,92.485 236.069,92.760 236.600 M287.291 256.200 C 287.248 264.560,287.344 271.608,287.506 271.863 C 287.773 272.283,287.758 255.516,287.482 245.200 C 287.420 242.890,287.334 247.840,287.291 256.200 M183.233 243.743 C 183.325 243.821,184.030 244.001,184.800 244.142 C 185.785 244.323,186.022 244.282,185.600 244.006 C 185.058 243.650,182.837 243.403,183.233 243.743 M189.200 245.379 C 189.200 245.489,189.740 245.859,190.400 246.200 C 191.060 246.541,191.600 246.731,191.600 246.621 C 191.600 246.511,191.060 246.141,190.400 245.800 C 189.740 245.459,189.200 245.269,189.200 245.379 M193.621 248.444 C 194.623 249.410,195.947 250.830,196.562 251.600 C 197.178 252.370,197.539 252.730,197.366 252.400 C 196.683 251.099,194.579 248.728,193.226 247.735 C 192.029 246.856,192.092 246.970,193.621 248.444 M47.115 250.328 C 46.738 250.478,48.036 250.600,50.000 250.600 C 51.964 250.600,53.262 250.478,52.885 250.328 C 52.508 250.179,51.210 250.056,50.000 250.056 C 48.790 250.056,47.492 250.179,47.115 250.328 M198.467 255.220 C 198.701 255.892,198.967 256.367,199.057 256.276 C 199.256 256.078,198.501 254.000,198.231 254.000 C 198.127 254.000,198.233 254.549,198.467 255.220 M199.256 257.200 C 199.256 257.530,199.411 258.160,199.600 258.600 C 199.817 259.104,199.944 259.178,199.944 258.800 C 199.944 258.470,199.789 257.840,199.600 257.400 C 199.383 256.896,199.256 256.822,199.256 257.200 M37.873 259.353 C 37.723 259.745,37.611 260.366,37.625 260.733 C 37.642 261.175,37.781 261.074,38.037 260.434 C 38.249 259.903,38.361 259.282,38.285 259.054 C 38.209 258.827,38.024 258.961,37.873 259.353 M61.656 259.200 C 61.656 259.530,61.811 260.160,62.000 260.600 C 62.217 261.104,62.344 261.178,62.344 260.800 C 62.344 260.470,62.189 259.840,62.000 259.400 C 61.783 258.896,61.656 258.822,61.656 259.200 M200.175 272.000 C 200.175 277.830,200.231 280.215,200.299 277.300 C 200.367 274.385,200.367 269.615,200.299 266.700 C 200.231 263.785,200.175 266.170,200.175 272.000 M37.656 264.400 C 37.656 264.730,37.811 265.360,38.000 265.800 C 38.217 266.304,38.344 266.378,38.344 266.000 C 38.344 265.670,38.189 265.040,38.000 264.600 C 37.783 264.096,37.656 264.022,37.656 264.400 M61.829 265.029 C 61.681 265.615,61.638 266.172,61.732 266.266 C 61.827 266.360,62.024 265.958,62.171 265.371 C 62.319 264.785,62.362 264.228,62.268 264.134 C 62.173 264.040,61.976 264.442,61.829 265.029 M40.800 271.000 C 41.317 271.550,41.880 272.000,42.052 272.000 C 42.223 272.000,41.914 271.550,41.364 271.000 C 40.814 270.450,40.250 270.000,40.112 270.000 C 39.974 270.000,40.283 270.450,40.800 271.000 M58.514 271.080 C 58.027 271.586,57.774 272.000,57.952 272.000 C 58.342 272.000,59.798 270.445,59.564 270.277 C 59.474 270.213,59.001 270.574,58.514 271.080 M45.633 274.144 C 45.725 274.223,46.340 274.408,47.000 274.556 C 47.876 274.752,48.038 274.715,47.600 274.418 C 47.060 274.053,45.232 273.798,45.633 274.144 M52.400 274.418 C 51.962 274.715,52.124 274.752,53.000 274.556 C 54.471 274.227,54.790 273.998,53.767 274.006 C 53.345 274.009,52.730 274.195,52.400 274.418 M288.813 275.094 C 288.830 275.507,290.802 277.731,290.987 277.546 C 291.068 277.465,290.609 276.812,289.967 276.093 C 289.325 275.375,288.806 274.925,288.813 275.094 M292.046 278.740 C 293.012 279.490,295.177 280.703,294.790 280.277 C 294.422 279.874,291.575 278.000,291.328 278.000 C 291.198 278.000,291.521 278.333,292.046 278.740 M95.783 282.434 C 95.430 283.116,95.220 283.753,95.317 283.850 C 95.413 283.947,95.718 283.480,95.995 282.813 L 96.497 281.600 116.824 281.600 L 137.152 281.600 137.318 283.003 L 137.484 284.407 137.442 282.903 L 137.400 281.400 116.912 281.296 L 96.424 281.193 95.783 282.434 M304.474 281.499 C 308.145 281.565,314.265 281.565,318.074 281.499 C 321.883 281.434,318.880 281.380,311.400 281.380 C 303.920 281.379,300.803 281.433,304.474 281.499 M199.400 285.600 C 199.248 286.291,199.207 286.941,199.309 287.042 C 199.411 287.144,199.609 286.653,199.750 285.950 C 200.083 284.283,199.760 283.960,199.400 285.600 M137.849 285.957 C 138.099 287.374,139.091 290.000,139.375 290.000 C 139.465 290.000,139.215 289.055,138.819 287.900 C 137.754 284.795,137.584 284.455,137.849 285.957 M246.937 287.506 C 246.517 287.773,263.284 287.758,273.600 287.482 C 275.910 287.420,270.960 287.334,262.600 287.291 C 254.240 287.248,247.192 287.344,246.937 287.506 M197.253 290.806 C 195.598 293.660,193.728 295.513,190.624 297.375 C 189.316 298.159,188.434 298.800,188.662 298.800 C 190.902 298.800,199.907 289.716,198.749 288.624 C 198.667 288.547,197.994 289.529,197.253 290.806 M281.196 289.083 C 281.744 289.477,282.914 290.422,283.796 291.183 L 285.400 292.566 284.112 291.177 C 283.404 290.412,282.234 289.467,281.512 289.076 C 280.246 288.390,280.235 288.391,281.196 289.083 M242.629 289.409 C 242.205 289.729,241.935 290.068,242.029 290.161 C 242.123 290.255,242.625 289.987,243.144 289.566 C 244.238 288.679,243.779 288.539,242.629 289.409 M90.606 291.488 L 89.904 292.600 90.830 291.711 C 91.339 291.222,91.655 290.722,91.532 290.599 C 91.409 290.476,90.992 290.876,90.606 291.488 M239.269 292.839 C 238.528 294.024,238.857 294.113,239.719 292.961 C 240.114 292.432,240.292 292.000,240.115 292.000 C 239.938 292.000,239.557 292.378,239.269 292.839 M87.805 295.100 C 86.554 296.577,86.325 296.971,87.165 296.200 C 88.405 295.062,90.227 292.800,89.904 292.800 C 89.821 292.800,88.876 293.835,87.805 295.100 M143.317 294.953 C 145.366 296.937,148.000 298.775,148.000 298.221 C 148.000 298.111,147.482 297.753,146.848 297.425 C 146.215 297.097,144.640 295.902,143.348 294.769 L 141.000 292.709 143.317 294.953 M286.828 296.276 C 286.918 297.315,287.544 298.196,287.572 297.324 C 287.587 296.842,287.420 296.336,287.200 296.200 C 286.980 296.064,286.813 296.098,286.828 296.276 M237.449 297.015 C 237.312 297.373,237.241 304.446,237.291 312.733 L 237.381 327.800 237.591 312.200 C 237.815 295.469,237.821 296.048,237.449 297.015 M82.800 300.076 C 81.370 301.417,80.740 302.144,81.400 301.691 C 82.546 300.904,85.960 297.579,85.581 297.619 C 85.482 297.629,84.230 298.735,82.800 300.076 M151.200 299.600 C 152.568 300.038,153.619 300.038,152.600 299.600 C 152.160 299.411,151.440 299.262,151.000 299.268 C 150.357 299.277,150.396 299.343,151.200 299.600 M185.000 299.600 C 183.981 300.038,185.032 300.038,186.400 299.600 C 187.204 299.343,187.243 299.277,186.600 299.268 C 186.160 299.262,185.440 299.411,185.000 299.600 M161.900 300.299 C 165.695 300.365,171.905 300.365,175.700 300.299 C 179.495 300.234,176.390 300.180,168.800 300.180 C 161.210 300.180,158.105 300.234,161.900 300.299 M77.709 303.921 C 76.559 304.707,75.691 305.424,75.781 305.514 C 75.976 305.710,79.455 303.358,79.803 302.795 C 80.128 302.269,80.115 302.276,77.709 303.921 M125.067 316.267 C 124.920 316.413,124.818 317.088,124.841 317.767 L 124.882 319.000 125.210 317.603 C 125.553 316.147,125.517 315.816,125.067 316.267 M224.663 317.280 C 225.000 319.049,225.200 319.201,225.200 317.690 C 225.200 317.007,225.023 316.338,224.806 316.204 C 224.560 316.052,224.506 316.455,224.663 317.280 M137.680 345.480 C 137.631 358.073,137.436 366.777,137.173 368.080 C 135.512 376.324,133.288 381.872,130.229 385.400 L 128.842 387.000 246.521 387.102 C 324.666 387.170,364.590 387.070,365.360 386.802 C 365.998 386.581,367.024 386.400,367.641 386.400 C 369.315 386.400,373.368 384.655,376.395 382.631 C 381.383 379.296,385.498 373.121,386.412 367.600 C 386.576 366.610,386.912 364.804,387.159 363.587 C 387.463 362.092,387.573 355.475,387.500 343.187 L 387.392 325.000 387.296 343.656 L 387.200 362.313 385.700 364.101 C 382.003 368.507,375.785 372.392,370.600 373.536 C 369.500 373.779,367.755 374.162,366.723 374.389 C 365.461 374.665,327.350 374.800,250.469 374.800 L 136.091 374.800 136.925 371.900 C 137.744 369.054,138.403 339.565,137.902 328.200 C 137.824 326.440,137.725 334.216,137.680 345.480 M212.090 338.685 C 212.004 351.731,212.039 352.475,212.841 354.617 C 213.685 356.873,217.431 361.215,218.509 361.187 C 218.779 361.180,218.656 360.914,218.236 360.596 C 215.644 358.634,213.794 356.313,212.982 354.000 C 212.788 353.450,212.529 346.700,212.405 339.000 L 212.180 325.000 212.090 338.685 M287.646 326.085 C 287.321 333.682,281.895 337.305,270.400 337.600 L 262.600 337.800 262.400 345.800 C 262.145 356.016,261.077 358.400,255.511 361.181 L 253.072 362.400 237.585 362.400 C 224.662 362.400,221.858 362.300,220.649 361.795 C 219.802 361.441,219.200 361.358,219.200 361.595 C 219.200 361.818,219.549 362.000,219.976 362.000 C 220.403 362.000,220.864 362.180,221.000 362.400 C 221.158 362.656,227.058 362.800,237.386 362.800 C 254.941 362.800,254.623 362.838,257.750 360.400 C 262.147 356.973,262.800 355.081,262.800 345.762 L 262.800 338.000 269.900 337.998 C 277.814 337.995,279.263 337.730,282.277 335.731 C 285.533 333.571,288.526 328.237,287.884 325.741 C 287.752 325.229,287.678 325.335,287.646 326.085 M72.298 326.213 C 72.779 326.551,73.449 327.221,73.787 327.702 C 74.124 328.184,74.400 328.382,74.400 328.144 C 74.400 327.579,72.421 325.600,71.856 325.600 C 71.618 325.600,71.816 325.876,72.298 326.213 M74.752 330.087 C 74.937 331.198,74.993 331.255,75.119 330.454 C 75.201 329.933,75.103 329.343,74.901 329.141 C 74.679 328.919,74.621 329.293,74.752 330.087 M239.076 331.512 C 239.467 332.234,240.412 333.404,241.177 334.112 L 242.566 335.400 241.183 333.796 C 240.422 332.914,239.477 331.744,239.083 331.196 C 238.391 330.235,238.390 330.246,239.076 331.512 M246.200 337.200 C 246.336 337.420,246.842 337.587,247.324 337.572 C 248.169 337.545,248.171 337.531,247.400 337.200 C 246.299 336.727,245.908 336.727,246.200 337.200 M249.600 343.594 L 249.600 349.588 237.300 349.700 L 225.000 349.812 237.500 349.906 L 250.000 350.000 250.000 343.800 C 250.000 340.390,249.910 337.600,249.800 337.600 C 249.690 337.600,249.600 340.297,249.600 343.594 M75.287 365.800 C 75.291 366.240,75.432 367.140,75.600 367.800 C 75.874 368.878,75.906 368.898,75.913 368.000 C 75.917 367.450,75.776 366.550,75.600 366.000 C 75.349 365.216,75.281 365.173,75.287 365.800 M124.222 366.622 C 124.072 367.425,124.028 368.162,124.126 368.260 C 124.224 368.357,124.427 367.781,124.578 366.978 C 124.728 366.175,124.772 365.438,124.674 365.340 C 124.576 365.243,124.373 365.819,124.222 366.622 M76.807 371.746 C 76.797 372.214,78.894 376.040,79.066 375.868 C 79.141 375.793,78.665 374.757,78.008 373.566 C 77.352 372.375,76.811 371.556,76.807 371.746 M121.200 374.939 C 120.430 376.289,118.540 378.651,117.000 380.187 C 115.460 381.723,114.769 382.579,115.465 382.088 C 117.860 380.398,123.387 373.228,122.756 372.631 C 122.670 372.550,121.970 373.589,121.200 374.939 M80.013 377.400 C 80.971 378.809,83.363 381.242,84.600 382.067 C 85.413 382.608,85.284 382.412,84.200 381.459 C 83.320 380.684,81.896 379.274,81.034 378.325 C 80.173 377.376,79.714 376.960,80.013 377.400 M87.200 383.815 C 87.200 384.106,91.244 386.053,91.576 385.923 C 91.748 385.855,90.833 385.315,89.544 384.722 C 88.255 384.129,87.200 383.721,87.200 383.815 M110.200 384.829 C 108.880 385.472,108.031 385.998,108.313 385.999 C 108.903 386.000,112.800 384.084,112.800 383.793 C 112.800 383.547,112.992 383.470,110.200 384.829 M92.800 386.394 C 93.130 386.611,93.835 386.791,94.367 386.794 C 95.651 386.802,95.325 386.575,93.600 386.258 C 92.615 386.077,92.378 386.118,92.800 386.394 M105.800 386.400 C 104.693 386.682,104.677 386.709,105.600 386.747 C 106.150 386.769,106.870 386.613,107.200 386.400 C 107.881 385.960,107.529 385.960,105.800 386.400 M98.700 387.489 C 99.415 387.578,100.585 387.578,101.300 387.489 C 102.015 387.401,101.430 387.328,100.000 387.328 C 98.570 387.328,97.985 387.401,98.700 387.489 " stroke="none" fill="#92a4c5" fill-rule="evenodd"></path><path id="path3" d="M32.600 12.784 C 32.147 12.969,33.241 13.018,35.122 12.897 C 39.735 12.599,45.617 13.946,49.845 16.268 C 52.070 17.490,58.400 23.639,58.400 24.579 C 58.400 24.921,58.580 25.200,58.800 25.200 C 59.020 25.200,59.200 25.560,59.200 26.000 C 59.200 26.440,59.380 26.800,59.600 26.800 C 59.820 26.800,60.000 27.072,60.000 27.405 C 60.000 27.738,60.162 28.323,60.361 28.705 C 60.880 29.704,61.511 32.232,61.932 35.000 C 62.294 37.376,62.298 37.382,62.349 35.592 C 62.578 27.511,55.483 17.766,46.796 14.233 C 42.744 12.585,35.014 11.796,32.600 12.784 M65.612 12.699 C 65.605 12.974,66.393 14.234,67.363 15.499 C 68.332 16.765,69.611 18.745,70.205 19.900 C 71.264 21.962,71.831 22.679,71.311 21.300 C 70.867 20.124,68.448 16.120,67.460 14.926 C 66.947 14.307,66.325 13.440,66.076 13.000 C 65.828 12.560,65.619 12.425,65.612 12.699 M302.433 12.547 C 302.525 12.628,303.320 12.814,304.200 12.962 C 305.346 13.154,305.630 13.114,305.200 12.821 C 304.660 12.453,302.032 12.193,302.433 12.547 M23.090 16.824 C 20.918 18.262,17.069 22.310,16.146 24.127 C 15.320 25.751,15.520 25.551,17.744 22.524 C 19.371 20.309,21.493 18.336,24.415 16.321 C 26.159 15.118,25.001 15.558,23.090 16.824 M312.400 15.767 C 312.400 15.859,313.075 16.348,313.900 16.852 C 314.725 17.357,316.390 18.671,317.600 19.773 C 319.634 21.626,319.679 21.647,318.200 20.058 C 316.039 17.735,312.400 15.044,312.400 15.767 M321.037 24.200 C 321.397 24.750,321.757 25.200,321.837 25.200 C 321.917 25.200,321.778 24.750,321.527 24.200 C 321.277 23.650,320.916 23.200,320.727 23.200 C 320.537 23.200,320.676 23.650,321.037 24.200 M73.206 27.433 C 73.209 27.855,73.395 28.470,73.618 28.800 C 73.915 29.238,73.952 29.076,73.756 28.200 C 73.427 26.729,73.198 26.410,73.206 27.433 M323.844 30.200 C 324.173 31.671,324.402 31.990,324.394 30.967 C 324.391 30.545,324.205 29.930,323.982 29.600 C 323.685 29.162,323.648 29.324,323.844 30.200 M74.040 30.833 C 74.062 31.585,74.230 32.650,74.413 33.200 C 74.629 33.846,74.666 33.420,74.519 32.000 C 74.259 29.483,73.981 28.807,74.040 30.833 M12.656 32.884 C 12.521 33.388,12.431 34.610,12.456 35.600 C 12.497 37.224,12.534 37.147,12.835 34.818 C 13.178 32.171,13.093 31.254,12.656 32.884 M324.701 68.114 C 324.757 87.961,324.850 108.970,324.908 114.800 C 324.966 120.630,325.043 104.700,325.079 79.400 C 325.114 54.100,325.021 33.091,324.872 32.714 C 324.722 32.337,324.645 48.267,324.701 68.114 M74.997 128.200 C 74.997 178.580,75.043 199.131,75.100 173.868 C 75.157 148.605,75.157 107.385,75.100 82.268 C 75.043 57.151,74.997 77.820,74.997 128.200 M24.929 125.100 C 31.930 125.161,43.270 125.161,50.129 125.100 C 56.988 125.038,51.260 124.988,37.400 124.988 C 23.540 124.988,17.928 125.039,24.929 125.100 M325.218 126.520 C 325.158 127.599,327.724 130.809,328.237 130.297 C 328.364 130.169,328.095 129.865,327.637 129.620 C 327.180 129.375,326.453 128.506,326.021 127.688 C 325.589 126.869,325.227 126.344,325.218 126.520 M329.000 130.800 C 329.136 131.020,329.642 131.187,330.124 131.172 C 330.969 131.145,330.971 131.131,330.200 130.800 C 329.099 130.327,328.708 130.327,329.000 130.800 M326.111 146.500 C 325.657 147.086,325.154 148.400,325.383 148.400 C 325.470 148.400,325.811 147.860,326.140 147.200 C 326.770 145.937,326.759 145.663,326.111 146.500 M324.963 156.400 C 324.963 160.030,325.023 161.515,325.098 159.700 C 325.172 157.885,325.172 154.915,325.098 153.100 C 325.023 151.285,324.963 152.770,324.963 156.400 M325.203 164.276 C 325.208 164.897,326.692 166.849,327.642 167.485 C 328.306 167.929,328.201 167.724,327.300 166.815 C 326.585 166.095,326.000 165.267,326.000 164.976 C 326.000 164.685,325.820 164.336,325.600 164.200 C 325.380 164.064,325.201 164.098,325.203 164.276 M329.200 168.382 C 329.530 168.605,330.145 168.791,330.567 168.794 C 331.590 168.802,331.271 168.573,329.800 168.244 C 328.924 168.048,328.762 168.085,329.200 168.382 M329.200 181.618 C 328.762 181.915,328.924 181.952,329.800 181.756 C 331.271 181.427,331.590 181.198,330.567 181.206 C 330.145 181.209,329.530 181.395,329.200 181.618 M327.350 182.709 C 326.268 183.589,325.017 185.550,325.335 185.868 C 325.468 186.002,325.751 185.654,325.964 185.095 C 326.177 184.536,326.855 183.611,327.471 183.039 C 328.731 181.871,328.651 181.651,327.350 182.709 M324.800 194.435 L 324.800 201.670 322.900 203.468 L 321.000 205.267 323.100 203.533 L 325.200 201.800 325.200 194.500 C 325.200 190.485,325.110 187.200,325.000 187.200 C 324.890 187.200,324.800 190.456,324.800 194.435 M319.000 210.000 C 318.848 210.691,318.807 211.341,318.909 211.442 C 319.011 211.544,319.209 211.053,319.350 210.350 C 319.491 209.647,319.531 208.998,319.441 208.908 C 319.350 208.817,319.152 209.309,319.000 210.000 M79.200 222.118 C 79.200 222.220,80.047 222.997,81.081 223.845 C 82.116 224.693,82.834 225.178,82.676 224.923 C 82.340 224.379,79.200 221.845,79.200 222.118 M83.200 225.236 C 83.200 225.341,84.241 226.516,85.514 227.845 C 87.525 229.945,89.291 232.129,92.117 236.014 C 92.807 236.962,92.807 236.949,92.117 235.674 C 90.809 233.254,83.200 224.348,83.200 225.236 M297.111 231.528 C 296.471 231.781,311.462 231.735,316.400 231.470 C 317.610 231.405,313.920 231.330,308.200 231.304 C 302.480 231.278,297.490 231.379,297.111 231.528 M92.809 237.500 C 92.814 237.665,93.185 238.250,93.633 238.800 L 94.448 239.800 93.814 238.500 C 93.211 237.265,92.789 236.845,92.809 237.500 M287.829 240.629 C 287.681 241.215,287.638 241.772,287.732 241.866 C 287.827 241.960,288.024 241.558,288.171 240.971 C 288.319 240.385,288.362 239.828,288.268 239.734 C 288.173 239.640,287.976 240.042,287.829 240.629 M117.700 243.900 C 129.745 243.959,149.455 243.959,161.500 243.900 C 173.545 243.841,163.690 243.793,139.600 243.793 C 115.510 243.793,105.655 243.841,117.700 243.900 M184.600 244.381 C 185.040 244.581,185.724 244.756,186.119 244.772 C 186.515 244.787,187.581 245.159,188.489 245.597 C 189.396 246.036,190.205 246.329,190.285 246.249 C 190.569 245.965,186.978 244.506,185.400 244.264 C 184.287 244.094,184.043 244.129,184.600 244.381 M190.800 246.511 C 190.800 246.587,191.385 247.078,192.100 247.601 C 192.904 248.190,193.184 248.287,192.833 247.855 C 192.300 247.199,190.800 246.207,190.800 246.511 M193.600 248.567 C 193.600 248.988,194.805 250.128,195.021 249.912 C 195.122 249.811,194.844 249.402,194.402 249.002 C 193.961 248.603,193.600 248.407,193.600 248.567 M44.569 250.991 C 43.475 251.536,41.865 252.740,40.990 253.667 L 39.400 255.353 41.521 253.497 C 42.687 252.476,44.577 251.281,45.721 250.841 C 46.864 250.401,47.520 250.032,47.179 250.021 C 46.837 250.009,45.662 250.446,44.569 250.991 M56.000 251.641 C 56.770 252.101,58.118 253.136,58.995 253.939 C 60.126 254.975,60.300 255.065,59.595 254.246 C 58.419 252.881,55.666 250.799,55.040 250.801 C 54.798 250.802,55.230 251.180,56.000 251.641 M196.800 252.590 C 196.800 252.695,197.159 253.370,197.599 254.090 C 198.538 255.631,198.669 255.281,197.790 253.580 C 197.241 252.519,196.800 252.078,196.800 252.590 M38.344 257.433 C 37.898 258.442,37.604 259.338,37.691 259.424 C 37.778 259.511,38.227 258.686,38.690 257.591 C 39.153 256.496,39.447 255.600,39.343 255.600 C 39.240 255.600,38.790 256.425,38.344 257.433 M61.831 258.400 C 61.964 258.950,62.210 260.660,62.378 262.200 L 62.683 265.000 62.711 262.600 C 62.726 261.280,62.480 259.570,62.164 258.800 C 61.848 258.030,61.698 257.850,61.831 258.400 M199.400 271.799 C 199.400 279.372,199.522 285.261,199.672 284.884 C 199.821 284.508,199.944 278.620,199.944 271.800 C 199.944 264.980,199.821 259.091,199.672 258.714 C 199.522 258.337,199.400 264.225,199.400 271.799 M37.328 262.400 C 37.328 263.830,37.401 264.415,37.489 263.700 C 37.578 262.985,37.578 261.815,37.489 261.100 C 37.401 260.385,37.328 260.970,37.328 262.400 M60.281 269.439 C 59.886 269.968,59.708 270.400,59.885 270.400 C 60.234 270.400,61.338 268.801,61.128 268.600 C 61.057 268.533,60.677 268.911,60.281 269.439 M287.656 270.800 C 287.656 271.130,287.811 271.760,288.000 272.200 C 288.217 272.704,288.344 272.778,288.344 272.400 C 288.344 272.070,288.189 271.440,288.000 271.000 C 287.783 270.496,287.656 270.422,287.656 270.800 M42.000 272.285 C 42.000 272.634,43.599 273.738,43.800 273.528 C 43.867 273.457,43.489 273.077,42.961 272.681 C 42.432 272.286,42.000 272.108,42.000 272.285 M56.856 272.834 C 56.336 273.255,56.066 273.594,56.256 273.587 C 56.744 273.569,58.176 272.443,57.971 272.239 C 57.877 272.145,57.375 272.413,56.856 272.834 M288.412 273.320 C 288.390 273.913,289.542 275.854,290.258 276.429 C 290.838 276.895,290.818 276.780,290.145 275.800 C 289.693 275.140,289.120 274.240,288.873 273.800 C 288.626 273.360,288.419 273.144,288.412 273.320 M46.940 274.894 C 47.193 275.056,48.660 275.188,50.200 275.188 C 51.740 275.188,53.208 275.056,53.462 274.894 C 53.717 274.732,52.250 274.600,50.202 274.600 C 48.155 274.600,46.687 274.732,46.940 274.894 M296.600 280.800 C 297.040 280.989,297.760 281.144,298.200 281.144 L 299.000 281.144 298.200 280.800 C 297.760 280.611,297.040 280.456,296.600 280.456 L 295.800 280.456 296.600 280.800 M324.895 296.700 L 324.800 312.400 306.209 312.400 L 287.618 312.400 287.495 305.300 L 287.373 298.200 287.386 305.400 L 287.400 312.600 306.111 312.704 C 320.888 312.786,324.863 312.702,325.016 312.303 C 325.122 312.025,325.160 304.868,325.100 296.399 L 324.990 281.000 324.895 296.700 M137.656 283.800 C 137.656 284.240,137.811 284.960,138.000 285.400 L 138.344 286.200 138.344 285.400 C 138.344 284.960,138.189 284.240,138.000 283.800 L 137.656 283.000 137.656 283.800 M198.600 287.200 C 198.450 287.673,198.417 288.150,198.527 288.260 C 198.637 288.370,198.850 288.073,199.000 287.600 C 199.150 287.127,199.183 286.650,199.073 286.540 C 198.963 286.430,198.750 286.727,198.600 287.200 M92.614 287.835 C 92.241 288.404,92.005 288.938,92.089 289.022 C 92.173 289.107,92.558 288.641,92.944 287.988 C 93.806 286.528,93.548 286.409,92.614 287.835 M246.600 288.000 C 246.096 288.217,246.022 288.344,246.400 288.344 C 246.730 288.344,247.360 288.189,247.800 288.000 C 248.304 287.783,248.378 287.656,248.000 287.656 C 247.670 287.656,247.040 287.811,246.600 288.000 M277.000 288.000 C 278.196 288.514,279.195 288.514,278.400 288.000 C 278.070 287.787,277.440 287.622,277.000 287.634 L 276.200 287.656 277.000 288.000 M243.900 289.029 C 242.349 289.870,242.525 290.161,244.100 289.359 C 245.608 288.593,245.875 288.394,245.367 288.416 C 245.165 288.425,244.505 288.701,243.900 289.029 M139.204 289.000 C 139.205 289.220,139.563 289.940,140.000 290.600 C 141.036 292.164,141.037 291.608,140.001 289.910 C 139.562 289.189,139.204 288.780,139.204 289.000 M89.942 291.900 C 89.017 293.165,86.806 295.727,85.030 297.593 C 83.162 299.555,82.644 300.229,83.801 299.193 C 86.541 296.738,92.504 289.600,91.815 289.600 C 91.711 289.600,90.868 290.635,89.942 291.900 M283.751 291.545 C 284.592 292.505,285.618 294.035,286.031 294.945 C 286.444 295.855,286.786 296.320,286.791 295.978 C 286.803 295.115,284.747 292.005,283.368 290.800 C 282.574 290.107,282.692 290.336,283.751 291.545 M240.998 291.202 C 239.958 292.351,240.420 292.480,241.514 291.346 C 242.017 290.826,242.270 290.400,242.076 290.400 C 241.882 290.400,241.397 290.761,240.998 291.202 M141.200 292.250 C 141.200 292.461,142.055 293.436,143.100 294.417 L 145.000 296.200 143.200 294.207 C 142.210 293.112,141.355 292.137,141.300 292.041 C 141.245 291.945,141.200 292.039,141.200 292.250 M194.083 294.301 C 192.243 296.257,192.708 296.338,194.607 294.393 C 195.463 293.517,195.991 292.823,195.781 292.851 C 195.572 292.879,194.808 293.531,194.083 294.301 M238.981 294.037 C 238.629 294.718,238.412 295.345,238.499 295.432 C 238.586 295.519,238.956 294.962,239.322 294.195 C 240.144 292.470,239.859 292.338,238.981 294.037 M237.829 297.029 C 237.681 297.615,237.638 298.172,237.732 298.266 C 237.827 298.360,238.024 297.958,238.171 297.371 C 238.319 296.785,238.362 296.228,238.268 296.134 C 238.173 296.040,237.976 296.442,237.829 297.029 M186.800 298.800 C 186.267 299.145,186.267 299.188,186.800 299.188 C 187.130 299.188,187.670 299.013,188.000 298.800 C 188.533 298.455,188.533 298.412,188.000 298.412 C 187.670 298.412,187.130 298.587,186.800 298.800 M152.715 299.672 C 153.092 299.821,160.330 299.944,168.800 299.944 C 177.270 299.944,184.508 299.821,184.885 299.672 C 185.262 299.522,178.024 299.400,168.800 299.400 C 159.576 299.400,152.338 299.522,152.715 299.672 M79.600 302.249 C 77.034 304.256,76.664 304.763,78.918 303.183 C 80.600 302.004,81.985 300.760,81.549 300.821 C 81.467 300.832,80.590 301.475,79.600 302.249 M72.800 306.477 C 69.319 308.327,68.744 308.756,71.000 307.821 C 72.810 307.071,76.000 305.260,76.000 304.983 C 76.000 304.756,76.331 304.602,72.800 306.477 M152.531 312.700 C 165.033 312.759,185.373 312.759,197.731 312.700 C 210.089 312.641,199.860 312.593,175.000 312.593 C 150.140 312.593,140.029 312.641,152.531 312.700 M127.878 313.545 C 126.714 314.312,125.916 315.296,125.479 316.500 C 125.046 317.695,125.530 317.269,126.193 315.872 C 126.539 315.142,127.493 314.156,128.311 313.681 C 129.130 313.207,129.620 312.815,129.400 312.812 C 129.180 312.808,128.495 313.138,127.878 313.545 M221.689 313.681 C 222.507 314.156,223.461 315.142,223.807 315.872 C 224.470 317.269,224.954 317.695,224.521 316.500 C 223.929 314.867,221.724 312.793,220.600 312.812 C 220.380 312.815,220.870 313.207,221.689 313.681 M124.891 342.400 C 124.835 355.490,124.696 366.650,124.583 367.200 L 124.377 368.200 124.792 367.257 C 125.067 366.631,125.170 358.271,125.100 342.457 L 124.994 318.600 124.891 342.400 M224.993 334.500 L 225.000 350.200 237.200 350.209 L 249.400 350.217 237.305 350.103 L 225.209 349.988 225.098 334.394 L 224.986 318.800 224.993 334.500 M137.396 325.300 C 137.298 325.575,137.168 335.512,137.109 347.383 C 137.049 359.254,137.114 368.434,137.253 367.783 C 137.392 367.132,137.527 357.285,137.553 345.900 L 137.600 325.200 175.000 325.200 L 212.400 325.200 212.406 338.900 C 212.409 346.435,212.544 352.808,212.706 353.063 C 213.015 353.549,212.914 326.166,212.604 325.300 C 212.342 324.566,137.658 324.566,137.396 325.300 M287.467 325.067 C 287.320 325.213,287.200 325.747,287.200 326.252 C 287.200 333.388,281.214 337.200,270.009 337.200 C 266.070 337.200,262.763 337.335,262.661 337.500 C 262.044 338.492,278.237 337.382,280.486 336.278 C 284.211 334.448,287.600 329.641,287.600 326.187 L 287.600 325.203 337.700 325.100 L 387.800 324.997 337.767 324.898 C 310.248 324.844,287.613 324.920,287.467 325.067 M237.634 327.000 C 237.622 327.440,237.787 328.070,238.000 328.400 C 238.514 329.195,238.514 328.196,238.000 327.000 L 237.656 326.200 237.634 327.000 M74.912 348.800 C 74.882 358.590,74.979 366.909,75.128 367.287 C 75.378 367.919,75.344 344.331,75.081 335.000 C 75.019 332.800,74.943 339.010,74.912 348.800 M240.800 333.368 C 242.005 334.747,245.115 336.803,245.978 336.791 C 246.320 336.786,245.855 336.444,244.945 336.031 C 244.035 335.618,242.505 334.592,241.545 333.751 C 240.336 332.692,240.107 332.574,240.800 333.368 M250.160 343.800 C 250.161 347.100,250.222 348.397,250.298 346.682 C 250.373 344.967,250.372 342.267,250.297 340.682 C 250.221 339.097,250.159 340.500,250.160 343.800 M261.873 352.553 C 261.723 352.945,261.611 353.566,261.625 353.933 C 261.642 354.375,261.781 354.274,262.037 353.634 C 262.249 353.103,262.361 352.482,262.285 352.254 C 262.209 352.027,262.024 352.161,261.873 352.553 M214.344 356.600 C 215.290 358.311,219.082 361.600,220.109 361.600 C 220.355 361.600,219.749 361.088,218.763 360.463 C 217.776 359.837,216.279 358.532,215.436 357.563 C 214.592 356.593,214.101 356.160,214.344 356.600 M258.474 358.682 C 257.964 359.231,257.617 359.750,257.703 359.836 C 257.788 359.922,258.374 359.454,259.004 358.796 C 259.634 358.138,259.981 357.619,259.775 357.642 C 259.569 357.665,258.983 358.134,258.474 358.682 M221.200 362.000 C 221.530 362.213,222.160 362.378,222.600 362.366 L 223.400 362.344 222.600 362.000 C 221.404 361.486,220.405 361.486,221.200 362.000 M252.400 362.000 C 251.605 362.514,252.604 362.514,253.800 362.000 L 254.600 361.656 253.800 361.634 C 253.360 361.622,252.730 361.787,252.400 362.000 M387.063 364.000 C 386.886 364.990,386.599 366.610,386.427 367.600 C 385.456 373.184,381.372 379.304,376.395 382.631 C 373.368 384.655,369.315 386.400,367.641 386.400 C 367.024 386.400,365.998 386.581,365.360 386.802 C 364.590 387.070,324.666 387.170,246.521 387.102 L 128.842 387.000 130.242 385.400 C 131.991 383.402,135.477 376.340,135.771 374.200 C 135.952 372.881,135.827 373.062,135.061 375.227 C 133.612 379.322,131.870 382.508,129.580 385.251 C 128.730 386.269,128.147 387.214,128.284 387.351 C 128.849 387.916,365.294 387.598,367.600 387.029 C 379.013 384.215,388.667 372.771,387.532 363.400 C 387.402 362.326,387.353 362.390,387.063 364.000 M124.046 368.867 C 124.021 369.234,123.896 369.864,123.770 370.267 C 123.552 370.962,123.563 370.963,123.997 370.287 C 124.248 369.896,124.373 369.266,124.273 368.887 C 124.111 368.268,124.088 368.266,124.046 368.867 M136.449 369.800 C 136.416 370.240,136.296 371.050,136.183 371.600 L 135.977 372.600 136.406 371.619 C 136.642 371.079,136.761 370.269,136.672 369.819 C 136.513 369.021,136.507 369.021,136.449 369.800 M78.473 375.800 C 78.723 376.350,79.084 376.800,79.273 376.800 C 79.463 376.800,79.324 376.350,78.963 375.800 C 78.603 375.250,78.243 374.800,78.163 374.800 C 78.083 374.800,78.222 375.250,78.473 375.800 M121.037 375.800 C 120.676 376.350,120.537 376.800,120.727 376.800 C 120.916 376.800,121.277 376.350,121.527 375.800 C 121.778 375.250,121.917 374.800,121.837 374.800 C 121.757 374.800,121.397 375.250,121.037 375.800 M82.865 380.889 C 84.149 382.149,85.739 383.458,86.399 383.800 C 88.091 384.675,87.894 384.245,86.100 383.148 C 85.275 382.643,83.685 381.413,82.566 380.415 C 80.849 378.883,80.896 378.957,82.865 380.889 M117.781 380.021 C 116.912 380.913,115.338 382.196,114.285 382.873 C 113.231 383.549,112.458 384.191,112.566 384.299 C 112.850 384.584,116.335 381.935,118.181 380.031 C 119.051 379.134,119.672 378.400,119.562 378.400 C 119.452 378.400,118.651 379.130,117.781 380.021 M94.800 387.179 C 95.130 387.404,95.925 387.591,96.567 387.594 C 98.104 387.602,97.784 387.370,95.800 387.038 C 94.654 386.846,94.370 386.886,94.800 387.179 M103.400 387.200 L 102.200 387.505 103.400 387.547 C 104.060 387.569,104.870 387.413,105.200 387.200 C 105.943 386.720,105.287 386.720,103.400 387.200 " stroke="none" fill="#6c89a4" fill-rule="evenodd"></path><path id="path4" d="M97.125 32.014 C 92.188 34.622,92.875 41.546,98.255 43.394 L 99.800 43.925 100.000 60.463 C 100.224 79.013,100.165 78.646,103.218 80.362 C 106.155 82.013,109.893 80.952,111.553 77.998 C 112.894 75.611,112.877 36.758,111.534 34.367 C 109.788 31.261,101.204 29.860,97.125 32.014 M128.149 32.197 C 124.974 34.100,125.017 33.813,124.871 54.200 C 124.660 83.520,123.003 81.152,143.746 81.181 C 164.271 81.209,162.400 83.714,162.400 56.200 C 162.400 28.730,164.265 31.198,143.504 31.204 L 129.800 31.208 128.149 32.197 M178.149 32.197 C 173.170 35.182,174.558 42.011,180.500 43.768 C 181.152 43.961,181.200 45.081,181.200 59.939 C 181.200 77.060,181.260 77.627,183.265 79.450 C 186.223 82.139,190.712 81.579,192.760 78.265 C 194.102 76.093,194.072 36.749,192.726 34.354 C 190.887 31.083,182.162 29.792,178.149 32.197 M209.769 32.008 C 206.308 33.721,206.400 33.058,206.401 56.454 C 206.403 83.807,204.444 81.200,225.000 81.200 C 245.540 81.200,243.600 83.785,243.600 56.407 C 243.600 28.695,245.451 31.200,224.974 31.200 C 212.166 31.201,211.308 31.246,209.769 32.008 M259.769 32.008 C 254.618 34.558,255.966 43.589,261.500 43.599 L 262.400 43.600 262.400 59.751 C 262.400 77.075,262.458 77.625,264.465 79.450 C 268.701 83.301,274.367 80.739,274.999 74.686 C 275.646 68.497,275.041 36.282,274.248 34.686 C 272.556 31.282,264.316 29.757,259.769 32.008 M290.966 32.033 C 285.812 34.536,287.169 43.589,292.700 43.599 L 293.600 43.600 293.600 59.613 C 293.600 73.118,293.696 75.856,294.215 77.098 C 296.645 82.913,304.378 82.423,306.013 76.351 C 306.936 72.925,306.326 36.002,305.320 34.385 C 303.336 31.196,295.377 29.892,290.966 32.033 M149.906 56.300 L 150.011 68.800 143.806 68.800 L 137.600 68.800 137.600 56.467 C 137.600 49.683,137.725 44.009,137.877 43.856 C 138.029 43.704,140.774 43.629,143.977 43.690 L 149.800 43.800 149.906 56.300 M231.106 56.300 L 231.211 68.800 225.006 68.800 L 218.800 68.800 218.800 56.467 C 218.800 49.683,218.925 44.009,219.077 43.856 C 219.229 43.704,221.974 43.629,225.177 43.690 L 231.000 43.800 231.106 56.300 M97.397 100.594 C 93.697 102.221,93.635 102.622,93.635 125.000 C 93.635 152.261,91.911 150.000,112.694 150.000 C 133.046 150.000,131.200 152.494,131.200 125.000 C 131.200 97.482,133.070 99.985,112.546 100.033 C 101.912 100.058,98.314 100.191,97.397 100.594 M147.341 100.617 C 142.252 102.848,142.847 110.336,148.262 112.197 L 149.800 112.725 149.903 128.863 C 149.987 141.846,150.118 145.236,150.578 146.206 C 152.789 150.878,159.070 151.217,161.553 146.798 C 162.879 144.439,162.879 105.561,161.553 103.202 C 159.856 100.183,151.712 98.701,147.341 100.617 M178.283 100.836 C 173.313 103.459,174.871 112.389,180.300 112.399 L 181.200 112.400 181.200 128.581 C 181.200 140.204,181.334 145.078,181.676 145.881 C 183.678 150.582,189.573 151.333,192.600 147.273 C 193.743 145.741,194.069 105.710,192.958 103.369 C 191.403 100.090,182.581 98.568,178.283 100.836 M209.349 100.997 C 206.321 102.812,206.400 102.171,206.400 125.000 C 206.400 147.881,206.317 147.214,209.387 149.014 L 211.070 150.000 224.981 150.000 C 245.380 150.000,243.366 152.665,243.510 125.482 C 243.635 102.065,243.723 102.809,240.613 100.986 L 238.930 100.000 224.965 100.004 L 211.000 100.008 209.349 100.997 M259.349 100.997 C 254.573 103.860,256.183 112.390,261.500 112.399 L 262.400 112.400 262.400 128.620 C 262.400 145.837,262.410 145.935,264.340 148.133 C 266.832 150.971,271.965 150.279,274.120 146.815 C 274.997 145.405,275.000 145.324,275.000 125.000 L 275.000 104.600 274.060 103.088 C 272.040 99.838,263.344 98.603,259.349 100.997 M290.743 100.863 C 286.042 103.589,286.752 110.464,291.900 112.066 L 293.600 112.595 293.618 128.397 C 293.636 144.956,293.750 146.177,295.454 148.059 C 298.091 150.974,303.315 150.311,305.378 146.800 C 306.172 145.447,306.204 144.747,306.314 125.896 C 306.450 102.857,306.350 102.193,302.514 100.590 C 300.181 99.615,292.592 99.791,290.743 100.863 M118.600 125.000 L 118.600 137.400 112.500 137.510 L 106.400 137.621 106.400 125.000 L 106.400 112.379 112.500 112.490 L 118.600 112.600 118.600 125.000 M231.200 125.000 L 231.200 137.600 225.000 137.600 L 218.800 137.600 218.800 125.000 L 218.800 112.400 225.000 112.400 L 231.200 112.400 231.200 125.000 M97.303 169.375 C 92.242 172.174,92.794 179.247,98.198 180.843 L 100.000 181.375 100.000 197.469 C 100.000 214.266,100.047 214.772,101.776 216.735 C 104.417 219.733,109.556 219.152,111.534 215.633 C 112.877 213.242,112.894 174.389,111.553 172.002 C 109.899 169.059,100.879 167.397,97.303 169.375 M128.414 169.519 C 124.823 171.283,124.701 172.191,124.871 195.800 C 125.018 216.235,124.971 215.929,128.187 217.814 L 129.870 218.800 143.540 218.800 C 164.260 218.800,162.400 221.265,162.400 193.800 C 162.400 166.286,164.271 168.791,143.746 168.819 C 131.449 168.836,129.636 168.919,128.414 169.519 M178.414 169.519 C 173.553 171.907,174.223 179.315,179.439 180.855 L 181.200 181.375 181.200 197.469 C 181.200 214.266,181.247 214.772,182.976 216.735 C 185.634 219.752,190.739 219.181,192.726 215.646 C 194.025 213.335,194.104 173.832,192.814 171.716 C 191.087 168.883,182.405 167.559,178.414 169.519 M209.614 169.519 C 208.852 169.894,207.817 170.812,207.314 171.559 L 206.400 172.918 206.400 193.505 C 206.400 221.317,204.549 218.800,225.000 218.800 C 245.449 218.800,243.601 221.310,243.599 193.546 C 243.597 170.336,243.724 171.296,240.432 169.616 C 238.174 168.465,211.929 168.382,209.614 169.519 M259.614 169.519 C 254.416 172.073,256.112 181.200,261.784 181.200 C 262.328 181.200,262.400 183.072,262.400 197.315 C 262.400 213.232,262.411 213.452,263.300 215.214 C 265.604 219.779,272.001 219.837,274.248 215.314 C 275.041 213.718,275.646 181.503,274.999 175.314 C 274.466 170.210,272.475 168.838,265.600 168.838 C 262.078 168.838,260.675 168.998,259.614 169.519 M290.743 169.663 C 285.884 172.481,287.543 181.200,292.938 181.200 C 293.498 181.200,293.579 183.013,293.683 197.700 C 293.815 216.373,293.754 216.015,297.135 217.915 C 300.008 219.530,303.494 218.550,305.320 215.615 C 306.191 214.215,306.201 213.999,306.314 194.696 C 306.449 171.836,306.364 171.238,302.729 169.424 C 300.679 168.402,292.643 168.562,290.743 169.663 M369.200 175.000 L 369.200 180.800 375.000 180.800 L 380.800 180.800 380.800 175.000 L 380.800 169.200 375.000 169.200 L 369.200 169.200 369.200 175.000 M149.906 193.700 L 149.800 206.200 143.800 206.200 L 137.800 206.200 137.694 193.700 L 137.589 181.200 143.800 181.200 L 150.011 181.200 149.906 193.700 M231.106 193.700 L 231.000 206.200 225.000 206.200 L 219.000 206.200 218.894 193.700 L 218.789 181.200 225.000 181.200 L 231.211 181.200 231.106 193.700 M331.600 225.000 L 331.600 237.200 343.800 237.200 L 356.000 237.200 356.000 225.000 L 356.000 212.800 343.800 212.800 L 331.600 212.800 331.600 225.000 M47.158 225.367 C 47.025 225.505,45.675 225.800,44.158 226.025 C 39.594 226.700,38.802 226.872,38.573 227.244 C 38.452 227.440,38.082 227.600,37.751 227.600 C 37.420 227.600,35.946 228.173,34.475 228.874 C 1.508 244.577,8.053 292.788,44.000 299.033 C 61.283 302.036,79.221 291.361,84.618 274.860 C 85.491 272.193,86.662 270.460,88.369 269.310 L 89.718 268.400 117.559 268.407 L 145.400 268.413 146.978 269.307 C 149.630 270.809,150.170 272.212,150.400 278.200 C 150.687 285.666,152.153 287.200,158.996 287.200 L 162.400 287.200 162.400 283.180 C 162.400 280.479,162.587 278.806,162.968 278.080 C 164.937 274.341,170.340 273.584,173.378 276.622 C 174.951 278.195,175.200 279.094,175.200 283.195 L 175.200 287.200 178.551 287.200 C 182.207 287.200,184.107 286.629,185.424 285.135 C 187.080 283.255,187.200 282.358,187.200 271.830 C 187.200 260.972,187.025 259.817,185.135 258.200 C 182.993 256.368,183.872 256.400,135.261 256.400 L 89.179 256.400 87.389 254.611 C 86.405 253.626,85.600 252.564,85.600 252.251 C 85.600 249.461,80.344 240.478,76.359 236.455 C 72.714 232.776,64.466 227.600,62.249 227.600 C 61.918 227.600,61.548 227.440,61.427 227.244 C 61.306 227.049,60.531 226.774,59.704 226.633 C 58.877 226.493,57.210 226.201,56.000 225.984 C 53.007 225.448,47.455 225.061,47.158 225.367 M55.040 237.553 C 55.678 237.748,57.010 238.144,58.000 238.435 C 59.658 238.921,60.753 239.431,63.215 240.862 C 68.291 243.813,73.249 250.476,74.629 256.200 C 75.134 258.294,75.286 267.274,74.824 267.736 C 74.591 267.969,74.400 268.576,74.400 269.085 C 74.400 269.594,74.236 270.323,74.035 270.705 C 73.834 271.087,73.186 272.445,72.595 273.722 C 64.710 290.754,39.947 292.620,29.194 276.991 C 28.537 276.037,28.000 275.063,28.000 274.828 C 28.000 274.593,27.820 274.400,27.600 274.400 C 27.380 274.400,27.200 274.164,27.200 273.875 C 27.200 273.586,26.840 272.605,26.400 271.694 C 25.960 270.784,25.600 269.616,25.600 269.099 C 25.600 268.583,25.409 267.969,25.176 267.736 C 24.714 267.274,24.866 258.294,25.371 256.200 C 26.741 250.516,31.745 243.793,36.785 240.862 C 39.245 239.432,40.341 238.921,42.000 238.433 C 42.990 238.141,44.250 237.759,44.800 237.583 C 46.178 237.142,53.620 237.121,55.040 237.553 M369.200 281.200 L 369.200 287.200 375.000 287.200 L 380.800 287.200 380.800 281.200 L 380.800 275.200 375.000 275.200 L 369.200 275.200 369.200 281.200 M250.400 312.600 L 250.400 324.800 262.600 324.800 L 274.800 324.800 274.800 312.600 L 274.800 300.400 262.600 300.400 L 250.400 300.400 250.400 312.600 " stroke="none" fill="#4094fc" fill-rule="evenodd"></path></g></svg>