<svg id="svg" version="1.1" xmlns="http://www.w3.org/2000/svg" xmlns:xlink="http://www.w3.org/1999/xlink" width="400" height="400" viewBox="0, 0, 400,400"><g id="svgg"><path id="path0" d="M28.600 263.233 C 25.598 264.720,25.426 265.246,25.200 273.600 L 25.000 281.000 21.800 281.200 L 18.600 281.400 18.490 287.484 L 18.379 293.567 21.690 293.684 L 25.000 293.800 25.200 332.418 C 25.423 375.423,25.199 372.235,28.122 374.018 C 29.378 374.784,30.836 374.797,112.340 374.799 C 205.350 374.800,197.096 375.085,199.014 371.813 L 200.000 370.130 200.000 318.914 C 200.000 260.221,200.341 264.872,195.898 263.015 C 193.292 261.926,30.811 262.137,28.600 263.233 M116.200 294.151 C 133.489 297.914,136.638 321.720,120.838 329.221 L 118.800 330.189 118.800 336.894 L 118.800 343.600 112.600 343.600 L 106.400 343.600 106.400 337.433 C 106.400 330.043,106.493 330.335,103.709 328.973 C 84.863 319.753,95.652 289.678,116.200 294.151 M109.543 307.263 C 106.676 308.926,105.566 312.827,107.198 315.504 C 109.817 319.800,115.672 319.548,117.918 315.043 C 120.557 309.753,114.674 304.288,109.543 307.263 " stroke="none" fill="#d35343" fill-rule="evenodd"></path><path id="path1" d="M112.200 12.400 C 112.064 12.620,111.524 12.800,111.000 12.800 C 110.476 12.800,109.936 12.980,109.800 13.200 C 109.664 13.420,109.113 13.600,108.576 13.600 C 108.039 13.600,107.600 13.780,107.600 14.000 C 107.600 14.220,107.240 14.400,106.800 14.400 C 106.360 14.400,106.000 14.550,106.000 14.732 C 106.000 14.915,105.511 15.320,104.912 15.632 C 102.504 16.889,98.089 21.304,96.832 23.712 C 96.520 24.311,96.115 24.800,95.932 24.800 C 95.750 24.800,95.600 25.160,95.600 25.600 C 95.600 26.040,95.420 26.400,95.200 26.400 C 94.980 26.400,94.800 26.839,94.800 27.376 C 94.800 27.913,94.620 28.464,94.400 28.600 C 94.180 28.736,94.000 29.276,94.000 29.800 C 94.000 30.324,93.820 30.864,93.600 31.000 C 93.337 31.163,93.200 47.337,93.200 78.224 L 93.200 125.200 95.100 125.198 C 96.145 125.197,99.025 125.080,101.500 124.937 L 106.000 124.678 106.000 80.285 C 106.000 47.053,106.120 35.479,106.478 34.246 C 107.691 30.067,111.158 26.577,115.400 25.265 C 116.655 24.876,135.360 24.794,202.200 24.885 L 287.400 25.000 287.632 45.600 C 287.769 57.785,288.034 66.854,288.280 67.800 C 289.017 70.626,290.074 73.371,290.847 74.462 C 291.261 75.046,291.600 75.678,291.600 75.867 C 291.600 77.855,299.702 84.188,304.477 85.932 L 307.400 87.000 328.600 87.200 L 349.800 87.400 349.903 207.600 L 350.006 327.800 349.184 329.832 C 348.673 331.096,347.574 332.618,346.281 333.854 C 344.315 335.733,343.812 336.052,341.081 337.150 C 340.271 337.476,324.141 337.600,282.581 337.600 L 225.200 337.600 225.200 343.800 L 225.200 350.000 281.900 350.000 C 341.701 349.999,340.985 350.019,346.141 348.218 C 354.120 345.432,359.918 338.556,361.842 329.600 C 362.735 325.438,362.672 81.148,361.776 79.005 C 361.359 78.005,356.728 73.076,347.776 64.102 C 340.419 56.727,334.400 50.531,334.400 50.333 C 334.400 49.545,366.045 50.123,367.690 50.941 C 371.071 52.622,373.494 55.573,374.766 59.560 C 375.075 60.527,375.200 102.965,375.200 206.445 L 375.200 351.970 374.378 354.166 C 373.293 357.068,370.537 360.077,367.681 361.480 L 365.400 362.600 295.361 362.708 L 225.321 362.815 225.063 367.308 C 224.920 369.778,224.803 372.565,224.802 373.500 L 224.800 375.200 296.786 375.200 C 360.772 375.200,368.985 375.131,370.686 374.579 C 373.171 373.772,376.000 372.366,376.000 371.937 C 376.000 371.752,376.267 371.600,376.593 371.600 C 377.782 371.600,384.000 365.456,384.000 364.281 C 384.000 364.004,384.360 363.517,384.800 363.200 C 385.240 362.883,385.600 362.303,385.600 361.912 C 385.600 361.520,385.780 361.200,386.000 361.200 C 386.220 361.200,386.400 360.660,386.400 360.000 C 386.400 359.340,386.580 358.800,386.800 358.800 C 387.020 358.800,387.200 358.361,387.200 357.824 C 387.200 357.287,387.380 356.736,387.600 356.600 C 387.866 356.436,388.000 305.863,388.000 206.176 C 388.000 106.325,387.866 56.000,387.600 56.000 C 387.380 56.000,387.200 55.460,387.200 54.800 C 387.200 54.140,387.020 53.600,386.800 53.600 C 386.580 53.600,386.400 53.060,386.400 52.400 C 386.400 51.740,386.220 51.200,386.000 51.200 C 385.780 51.200,385.600 50.840,385.600 50.400 C 385.600 49.960,385.450 49.600,385.268 49.600 C 385.085 49.600,384.680 49.105,384.368 48.500 C 384.055 47.895,383.305 46.923,382.700 46.340 C 382.095 45.756,381.600 45.147,381.600 44.986 C 381.600 44.667,380.579 43.742,379.188 42.800 C 378.701 42.470,378.099 42.020,377.851 41.800 C 377.603 41.580,376.905 41.145,376.300 40.832 C 375.695 40.520,375.200 40.115,375.200 39.932 C 375.200 39.750,374.840 39.600,374.400 39.600 C 373.960 39.600,373.600 39.420,373.600 39.200 C 373.600 38.980,373.150 38.800,372.600 38.800 C 372.050 38.800,371.600 38.620,371.600 38.400 C 371.600 38.180,371.060 38.000,370.400 38.000 C 369.740 38.000,369.200 37.820,369.200 37.600 C 369.200 37.338,361.177 37.200,345.932 37.200 L 322.664 37.200 318.997 33.500 C 316.980 31.465,313.455 27.983,311.165 25.762 C 308.874 23.542,305.069 19.717,302.709 17.262 C 300.348 14.808,298.143 12.800,297.809 12.800 C 297.474 12.800,297.200 12.620,297.200 12.400 C 297.200 11.845,112.543 11.845,112.200 12.400 M320.656 54.143 C 331.735 65.222,340.800 74.492,340.800 74.743 C 340.800 75.419,310.725 75.373,308.800 74.694 C 305.376 73.486,302.140 70.553,300.824 67.467 C 300.005 65.545,299.469 34.000,300.256 34.000 C 300.396 34.000,309.576 43.064,320.656 54.143 M125.200 43.800 L 125.200 50.000 131.200 50.000 L 137.200 50.000 137.200 43.800 L 137.200 37.600 131.200 37.600 L 125.200 37.600 125.200 43.800 M150.176 38.119 C 150.066 38.405,150.027 41.150,150.088 44.219 L 150.200 49.800 156.200 49.800 L 162.200 49.800 162.310 43.700 L 162.421 37.600 156.398 37.600 C 151.829 37.600,150.327 37.725,150.176 38.119 M175.200 43.800 L 175.200 50.000 181.200 50.000 L 187.200 50.000 187.200 43.800 L 187.200 37.600 181.200 37.600 L 175.200 37.600 175.200 43.800 M139.751 69.390 C 132.862 71.076,127.536 76.382,125.641 83.446 C 124.967 85.961,125.072 101.684,125.781 104.348 C 130.872 123.475,157.500 122.868,161.967 103.523 C 162.599 100.784,162.499 86.332,161.828 83.526 C 159.421 73.459,149.385 67.032,139.751 69.390 M175.200 93.800 L 175.200 118.800 181.200 118.800 L 187.200 118.800 187.200 93.800 L 187.200 68.800 181.200 68.800 L 175.200 68.800 175.200 93.800 M215.000 69.382 C 212.760 69.910,211.771 70.252,210.600 70.903 C 210.160 71.147,209.340 71.580,208.778 71.864 C 207.048 72.739,203.401 76.878,202.220 79.309 C 199.098 85.730,199.075 101.849,202.178 108.190 C 209.160 122.462,229.591 121.622,236.007 106.800 C 237.128 104.211,237.703 87.637,236.816 83.502 C 234.744 73.839,224.423 67.160,215.000 69.382 M265.000 69.382 C 262.760 69.910,261.771 70.252,260.600 70.903 C 260.160 71.147,259.340 71.580,258.778 71.864 C 257.048 72.739,253.401 76.878,252.220 79.309 C 249.098 85.730,249.075 101.849,252.178 108.190 C 259.160 122.462,279.591 121.622,286.007 106.800 C 287.128 104.211,287.703 87.637,286.816 83.502 C 284.744 73.839,274.423 67.160,265.000 69.382 M147.000 81.959 C 149.795 83.591,150.000 84.392,150.000 93.665 C 150.000 101.646,149.961 102.071,149.100 103.387 C 146.181 107.849,139.881 107.242,137.815 102.298 C 136.733 99.707,136.938 87.088,138.100 84.788 C 139.787 81.449,143.892 80.144,147.000 81.959 M221.520 81.762 C 222.670 82.360,223.882 83.630,224.700 85.095 C 225.447 86.431,225.393 100.641,224.635 102.451 C 222.510 107.523,215.544 107.683,212.962 102.720 C 211.965 100.804,212.169 86.319,213.219 84.454 C 214.855 81.549,218.708 80.299,221.520 81.762 M271.520 81.762 C 272.670 82.360,273.882 83.630,274.700 85.095 C 275.447 86.431,275.393 100.641,274.635 102.451 C 272.510 107.523,265.544 107.683,262.962 102.720 C 261.965 100.804,262.169 86.319,263.219 84.454 C 264.855 81.549,268.708 80.299,271.520 81.762 M244.000 156.200 L 244.000 181.200 250.000 181.200 L 256.000 181.200 256.000 156.200 L 256.000 131.200 250.000 131.200 L 244.000 131.200 244.000 156.200 M318.988 131.689 C 318.880 131.970,318.839 143.180,318.896 156.600 L 319.000 181.000 325.000 181.000 L 331.000 181.000 331.000 156.200 L 331.000 131.400 325.092 131.289 C 320.585 131.205,319.137 131.300,318.988 131.689 M209.000 131.758 C 208.780 131.838,207.790 132.141,206.800 132.433 C 197.482 135.177,193.997 141.634,194.005 156.142 C 194.011 167.971,195.095 171.630,199.888 176.010 C 210.784 185.970,227.706 180.301,230.756 165.669 C 231.402 162.568,231.303 149.150,230.612 146.258 C 228.559 137.662,221.847 132.000,213.400 131.737 C 211.200 131.669,209.220 131.678,209.000 131.758 M282.913 131.963 C 276.546 133.597,271.016 139.442,269.388 146.258 C 268.280 150.897,268.671 165.029,270.006 168.600 C 273.133 176.962,282.153 182.396,290.300 180.827 C 301.716 178.627,305.987 171.977,305.995 156.384 C 306.003 141.602,303.377 136.599,293.400 132.395 C 291.969 131.793,284.739 131.495,282.913 131.963 M105.800 138.045 C 104.480 138.265,101.915 138.336,100.100 138.202 C 97.903 138.040,96.800 138.099,96.800 138.379 C 96.800 138.611,96.091 138.800,95.224 138.800 C 94.357 138.800,93.536 138.980,93.400 139.200 C 93.264 139.420,92.533 139.600,91.776 139.600 C 91.019 139.600,90.400 139.780,90.400 140.000 C 90.400 140.220,89.860 140.400,89.200 140.400 C 88.540 140.400,88.000 140.580,88.000 140.800 C 88.000 141.020,87.691 141.200,87.313 141.200 C 86.711 141.200,84.728 141.818,82.200 142.793 C 80.412 143.483,75.767 145.823,75.298 146.269 C 75.021 146.532,74.436 146.862,73.998 147.001 C 73.559 147.140,73.200 147.422,73.200 147.627 C 73.200 147.832,72.917 148.000,72.571 148.000 C 71.895 148.000,70.800 148.922,70.800 149.492 C 70.800 150.094,71.786 151.994,72.100 151.997 C 72.265 151.999,72.400 152.270,72.400 152.600 C 72.400 152.930,72.580 153.200,72.800 153.200 C 73.020 153.200,73.200 153.470,73.200 153.800 C 73.200 154.135,73.556 154.400,74.008 154.400 C 74.518 154.400,75.294 155.087,76.108 156.258 C 78.626 159.879,78.402 159.732,80.000 158.811 C 101.983 146.146,127.581 146.934,148.160 160.909 C 157.726 167.405,166.551 178.526,170.848 189.500 C 171.041 189.995,171.365 190.805,171.567 191.300 C 171.768 191.795,172.050 192.650,172.194 193.200 C 172.337 193.750,172.634 194.830,172.854 195.600 C 174.998 203.114,175.200 205.975,175.200 228.865 L 175.200 250.000 165.600 250.000 L 156.000 250.000 155.993 229.500 C 155.984 204.419,155.622 201.607,151.298 193.000 C 145.437 181.333,135.531 173.625,121.800 170.046 C 116.889 168.766,108.321 168.741,103.200 169.992 C 100.198 170.725,98.184 171.353,97.820 171.670 C 97.611 171.851,97.195 172.000,96.895 172.000 C 96.325 172.000,91.147 174.375,90.800 174.796 C 90.690 174.929,89.790 175.516,88.800 176.100 C 84.841 178.435,77.386 185.977,75.583 189.472 C 75.263 190.092,74.901 190.690,74.777 190.800 C 74.333 191.197,72.000 196.364,72.000 196.951 C 72.000 197.282,71.841 197.651,71.648 197.770 C 71.454 197.890,71.176 198.486,71.030 199.094 C 70.884 199.702,70.582 200.920,70.360 201.800 C 69.475 205.300,68.846 212.135,68.824 218.500 L 68.800 225.200 59.400 225.200 L 50.000 225.200 50.000 215.400 C 50.000 200.798,52.048 191.586,57.274 182.682 C 57.893 181.628,58.400 180.670,58.400 180.554 C 58.400 180.327,60.803 176.728,61.174 176.400 C 61.298 176.290,61.843 175.570,62.385 174.801 C 63.484 173.241,64.587 171.924,67.100 169.176 C 69.177 166.904,69.183 167.167,67.000 164.671 C 65.954 163.475,65.200 162.217,65.200 161.667 C 65.200 160.825,64.604 160.111,62.225 158.100 C 60.984 157.050,59.941 157.574,56.758 160.844 C 55.021 162.628,53.600 164.265,53.600 164.483 C 53.600 164.701,53.060 165.383,52.400 166.000 C 51.740 166.617,51.200 167.327,51.200 167.579 C 51.200 167.830,50.764 168.472,50.231 169.005 C 49.698 169.538,49.146 170.340,49.004 170.787 C 48.862 171.234,48.578 171.600,48.373 171.600 C 48.168 171.600,48.000 171.920,48.000 172.312 C 48.000 172.703,47.640 173.283,47.200 173.600 C 46.760 173.917,46.400 174.482,46.400 174.855 C 46.400 175.228,46.256 175.593,46.081 175.667 C 45.602 175.867,42.526 182.409,42.212 183.895 C 42.062 184.608,41.772 185.294,41.569 185.419 C 41.366 185.545,41.200 186.177,41.200 186.824 C 41.200 187.471,41.020 188.000,40.800 188.000 C 40.580 188.000,40.400 188.540,40.400 189.200 C 40.400 189.860,40.220 190.400,40.000 190.400 C 39.780 190.400,39.600 191.030,39.600 191.800 C 39.600 192.570,39.420 193.200,39.200 193.200 C 38.980 193.200,38.800 193.920,38.800 194.800 C 38.800 195.680,38.620 196.400,38.400 196.400 C 38.178 196.400,38.000 197.467,38.000 198.800 C 38.000 200.133,37.822 201.200,37.600 201.200 C 37.340 201.200,37.200 207.067,37.200 218.000 C 37.200 227.240,37.337 234.800,37.505 234.800 C 37.673 234.800,37.988 235.205,38.205 235.700 C 38.422 236.195,39.005 236.778,39.500 236.995 C 39.995 237.212,40.400 237.527,40.400 237.695 C 40.400 237.863,48.950 238.000,59.400 238.000 C 69.850 238.000,78.400 237.863,78.400 237.695 C 78.400 237.527,78.805 237.212,79.300 236.995 C 79.795 236.778,80.378 236.195,80.595 235.700 C 80.812 235.205,81.127 234.800,81.295 234.800 C 81.463 234.800,81.600 229.850,81.600 223.800 C 81.600 216.733,81.743 212.800,82.000 212.800 C 82.235 212.800,82.400 211.400,82.400 209.400 C 82.400 207.400,82.565 206.000,82.800 206.000 C 83.020 206.000,83.200 205.471,83.200 204.824 C 83.200 204.177,83.380 203.536,83.600 203.400 C 83.820 203.264,84.000 202.713,84.000 202.176 C 84.000 201.639,84.180 201.200,84.400 201.200 C 84.620 201.200,84.800 200.840,84.800 200.400 C 84.800 199.960,84.980 199.600,85.200 199.600 C 85.420 199.600,85.600 199.240,85.600 198.800 C 85.600 198.360,85.780 198.000,86.000 198.000 C 86.220 198.000,86.400 197.680,86.400 197.288 C 86.400 196.897,86.760 196.317,87.200 196.000 C 87.640 195.683,88.000 195.182,88.000 194.887 C 88.000 194.189,94.189 188.000,94.887 188.000 C 95.182 188.000,95.683 187.640,96.000 187.200 C 96.317 186.760,96.897 186.400,97.288 186.400 C 97.680 186.400,98.000 186.220,98.000 186.000 C 98.000 185.780,98.360 185.600,98.800 185.600 C 99.330 185.600,99.600 185.333,99.600 184.810 C 99.600 182.300,112.714 180.101,118.554 181.632 C 122.645 182.704,123.562 183.022,126.087 184.244 C 134.427 188.278,140.378 195.500,143.029 204.800 C 143.700 207.154,143.782 209.413,143.901 228.715 L 144.033 250.031 84.817 249.750 C 39.916 249.538,25.600 249.582,25.600 249.935 C 25.600 250.191,25.060 250.400,24.400 250.400 C 23.740 250.400,23.200 250.580,23.200 250.800 C 23.200 251.020,22.840 251.200,22.400 251.200 C 21.960 251.200,21.600 251.380,21.600 251.600 C 21.600 251.820,21.339 252.000,21.019 252.000 C 20.263 252.000,14.400 257.863,14.400 258.619 C 14.400 258.939,14.265 259.201,14.100 259.203 C 13.699 259.207,12.800 261.181,12.800 262.056 C 12.800 262.439,12.620 262.864,12.400 263.000 C 12.152 263.153,12.000 266.737,12.000 272.424 L 12.000 281.600 14.900 281.558 C 16.495 281.534,19.420 281.399,21.400 281.258 L 25.000 281.000 25.200 273.600 C 25.427 265.200,25.596 264.697,28.696 263.212 C 31.017 262.100,193.250 261.909,195.898 263.015 C 200.341 264.872,200.000 260.221,200.000 318.914 L 200.000 370.130 199.014 371.813 C 197.096 375.085,205.350 374.800,112.340 374.799 C 30.285 374.797,29.386 374.789,28.096 374.002 C 24.983 372.104,25.203 375.269,25.201 332.324 C 25.201 311.272,25.065 293.966,24.900 293.867 C 24.735 293.768,21.765 293.555,18.300 293.395 L 12.000 293.103 12.000 333.752 C 12.000 360.584,12.136 374.400,12.400 374.400 C 12.620 374.400,12.800 374.940,12.800 375.600 C 12.800 376.260,12.980 376.800,13.200 376.800 C 13.420 376.800,13.600 377.160,13.600 377.600 C 13.600 378.040,13.780 378.400,14.000 378.400 C 14.220 378.400,14.400 378.661,14.400 378.981 C 14.400 379.737,20.263 385.600,21.019 385.600 C 21.339 385.600,21.600 385.780,21.600 386.000 C 21.600 386.220,21.960 386.400,22.400 386.400 C 22.840 386.400,23.200 386.580,23.200 386.800 C 23.200 387.020,23.740 387.200,24.400 387.200 C 25.060 387.200,25.600 387.380,25.600 387.600 C 25.600 387.865,54.867 388.000,112.600 388.000 C 170.333 388.000,199.600 387.865,199.600 387.600 C 199.600 387.380,200.039 387.200,200.576 387.200 C 201.113 387.200,201.664 387.020,201.800 386.800 C 201.936 386.580,202.397 386.400,202.824 386.400 C 203.251 386.400,203.600 386.220,203.600 386.000 C 203.600 385.780,203.870 385.600,204.200 385.600 C 204.530 385.600,204.800 385.420,204.800 385.200 C 204.800 384.980,205.025 384.795,205.300 384.788 C 205.575 384.781,206.250 384.229,206.800 383.560 C 207.350 382.892,208.385 381.733,209.100 380.986 C 209.815 380.238,210.400 379.351,210.400 379.013 C 210.400 378.676,210.580 378.400,210.800 378.400 C 211.020 378.400,211.200 378.040,211.200 377.600 C 211.200 377.160,211.380 376.800,211.600 376.800 C 211.820 376.800,212.000 376.260,212.000 375.600 C 212.000 374.940,212.135 374.400,212.300 374.400 C 212.827 374.400,212.477 268.132,211.942 265.400 C 210.085 255.929,203.224 250.700,191.800 250.050 L 187.400 249.800 187.165 226.400 C 187.036 213.530,186.819 202.640,186.683 202.200 C 186.548 201.760,186.147 199.870,185.792 198.000 C 181.038 172.917,161.656 150.185,138.400 142.416 C 136.970 141.938,135.440 141.400,135.000 141.219 C 133.613 140.650,128.631 139.380,126.200 138.975 C 119.638 137.882,109.540 137.422,105.800 138.045 M215.598 144.447 C 218.498 146.077,218.800 147.201,218.800 156.360 C 218.800 163.951,218.750 164.487,217.931 165.737 C 214.988 170.226,208.609 169.729,206.565 164.851 C 205.613 162.578,205.769 149.221,206.771 147.257 C 208.539 143.791,212.300 142.594,215.598 144.447 M290.105 144.100 C 293.613 146.061,294.000 147.255,294.000 156.135 C 294.000 161.578,293.852 163.855,293.435 164.851 C 291.289 169.973,284.530 170.222,281.700 165.283 C 280.741 163.610,281.019 148.630,282.043 146.808 C 283.565 144.100,287.650 142.728,290.105 144.100 M206.400 218.810 L 206.400 243.621 212.500 243.510 L 218.600 243.400 218.703 218.700 L 218.806 194.000 212.603 194.000 L 206.400 194.000 206.400 218.810 M244.309 194.938 C 233.503 198.621,229.386 208.954,231.622 226.784 C 233.958 245.414,258.595 249.783,266.611 232.988 C 269.170 227.625,269.667 212.725,267.497 206.400 C 264.290 197.053,253.603 191.770,244.309 194.938 M294.309 194.938 C 283.503 198.621,279.386 208.954,281.622 226.784 C 283.958 245.414,308.595 249.783,316.611 232.988 C 319.170 227.625,319.667 212.725,317.497 206.400 C 314.290 197.053,303.603 191.770,294.309 194.938 M93.200 218.829 L 93.200 238.059 96.500 237.836 C 98.315 237.713,101.195 237.506,102.900 237.375 L 106.000 237.137 106.000 218.630 L 106.000 200.123 101.137 199.861 C 98.463 199.718,95.583 199.600,94.737 199.600 L 93.200 199.600 93.200 218.829 M252.716 206.757 C 254.227 207.529,255.007 208.297,255.900 209.895 C 256.913 211.706,256.572 226.309,255.475 228.122 C 252.927 232.331,247.044 232.407,244.616 228.263 C 243.352 226.107,243.035 212.056,244.197 209.726 C 245.812 206.488,249.601 205.168,252.716 206.757 M302.716 206.757 C 304.227 207.529,305.007 208.297,305.900 209.895 C 306.913 211.706,306.572 226.309,305.475 228.122 C 302.927 232.331,297.044 232.407,294.616 228.263 C 293.352 226.107,293.035 212.056,294.197 209.726 C 295.812 206.488,299.601 205.168,302.716 206.757 M231.297 287.500 L 231.400 312.200 237.500 312.310 L 243.600 312.421 243.600 287.610 L 243.600 262.800 237.397 262.800 L 231.194 262.800 231.297 287.500 M270.033 263.435 C 263.827 265.104,258.697 270.420,256.998 276.943 C 256.276 279.716,256.155 294.580,256.831 297.523 C 261.264 316.829,288.001 317.094,292.997 297.880 C 293.843 294.625,293.847 280.188,293.002 276.943 C 290.345 266.742,280.113 260.725,270.033 263.435 M306.400 287.610 L 306.400 312.421 312.500 312.310 L 318.600 312.200 318.703 287.500 L 318.806 262.800 312.603 262.800 L 306.400 262.800 306.400 287.610 M277.952 275.621 C 281.026 277.349,281.200 277.984,281.199 287.425 C 281.197 295.076,281.128 295.913,280.402 297.104 C 278.020 301.011,271.980 301.011,269.598 297.104 C 268.318 295.004,268.390 279.649,269.689 277.753 C 271.602 274.961,275.149 274.046,277.952 275.621 M109.004 294.070 C 91.990 297.315,88.329 321.448,103.709 328.973 C 106.493 330.335,106.400 330.043,106.400 337.433 L 106.400 343.600 112.600 343.600 L 118.800 343.600 118.800 336.894 L 118.800 330.189 120.838 329.221 C 140.055 320.097,129.948 290.076,109.004 294.070 M115.504 307.198 C 119.800 309.817,119.548 315.672,115.043 317.918 C 109.770 320.548,104.344 314.767,107.243 309.608 C 108.889 306.680,112.788 305.542,115.504 307.198 " stroke="none" fill="#040404" fill-rule="evenodd"></path><path id="path2" d="M115.800 25.702 C 110.705 27.472,108.209 30.079,106.850 35.046 C 106.529 36.220,106.400 49.393,106.400 80.946 L 106.400 125.200 103.000 125.200 L 99.600 125.200 99.600 131.657 L 99.600 138.115 102.500 137.761 C 109.376 136.922,121.560 137.406,128.000 138.775 C 128.990 138.985,130.340 139.270,131.000 139.409 C 131.660 139.547,132.560 139.802,133.000 139.975 C 133.440 140.148,134.520 140.506,135.400 140.771 C 137.038 141.264,138.464 141.821,139.695 142.447 C 140.077 142.641,140.617 142.801,140.895 142.803 C 144.314 142.820,159.536 153.005,166.000 159.601 C 177.847 171.689,183.896 183.980,187.174 202.624 C 187.441 204.145,187.600 213.345,187.600 227.324 L 187.600 249.600 191.100 249.602 C 201.880 249.609,209.044 254.292,211.987 263.254 C 212.788 265.694,212.800 266.527,212.800 317.466 L 212.800 369.200 218.800 369.200 L 224.800 369.200 224.800 365.800 L 224.800 362.400 293.133 362.400 C 340.750 362.400,362.184 362.268,363.833 361.964 C 369.340 360.949,372.904 357.745,374.252 352.600 C 374.663 351.033,374.664 61.371,374.253 59.800 C 373.919 58.519,373.144 56.730,372.781 56.400 C 372.660 56.290,372.165 55.632,371.680 54.937 C 368.819 50.839,366.213 50.331,348.844 50.481 L 335.088 50.600 348.444 64.018 C 355.790 71.398,362.025 77.831,362.300 78.313 C 362.917 79.394,363.046 328.952,362.430 330.481 C 362.226 330.987,361.827 332.255,361.543 333.300 C 361.258 334.345,360.885 335.200,360.713 335.200 C 360.541 335.200,360.400 335.560,360.400 336.000 C 360.400 336.440,360.220 336.800,360.000 336.800 C 359.780 336.800,359.600 336.993,359.600 337.228 C 359.600 339.667,351.925 346.693,347.200 348.579 C 342.592 350.418,344.284 350.371,282.890 350.386 L 224.780 350.400 224.890 343.900 L 225.000 337.400 282.600 337.193 C 314.372 337.079,340.648 336.827,341.200 336.632 C 344.776 335.366,348.203 331.738,349.162 328.200 C 349.469 327.067,349.596 291.724,349.598 207.107 L 349.600 87.614 328.500 87.484 C 305.797 87.344,306.432 87.392,302.000 85.456 C 298.215 83.803,291.200 77.763,291.200 76.157 C 291.200 76.029,290.870 75.446,290.466 74.862 C 287.481 70.541,287.230 68.281,287.214 45.500 L 287.200 25.200 202.100 25.243 C 144.200 25.272,116.616 25.418,115.800 25.702 M300.283 35.051 C 299.821 35.512,299.954 61.599,300.431 64.227 C 301.333 69.196,304.836 73.061,309.600 74.344 C 310.894 74.692,315.479 74.796,325.902 74.714 L 340.403 74.600 320.484 54.684 C 309.529 43.730,300.438 34.895,300.283 35.051 M137.510 43.700 L 137.400 50.200 131.200 50.200 L 125.000 50.200 124.889 44.218 C 124.744 36.445,124.044 37.200,131.397 37.200 L 137.620 37.200 137.510 43.700 M162.600 43.800 L 162.600 50.200 156.654 50.311 C 152.610 50.386,150.531 50.275,150.154 49.962 C 149.563 49.471,149.309 38.025,149.876 37.457 C 150.028 37.305,152.953 37.230,156.376 37.290 L 162.600 37.400 162.600 43.800 M187.510 43.700 L 187.400 50.200 181.200 50.200 L 175.000 50.200 174.889 44.218 C 174.744 36.445,174.044 37.200,181.397 37.200 L 187.620 37.200 187.510 43.700 M148.200 68.945 C 150.792 69.640,153.541 70.908,154.800 71.989 C 156.899 73.792,157.433 74.304,158.513 75.544 C 163.722 81.526,164.892 102.892,160.359 109.258 C 159.942 109.844,159.600 110.477,159.600 110.665 C 159.600 111.319,154.452 115.957,152.779 116.810 C 143.338 121.627,131.329 117.866,126.924 108.713 C 124.872 104.450,124.800 103.944,124.800 93.800 C 124.800 84.797,124.990 82.801,126.049 80.705 C 126.242 80.323,126.400 79.819,126.400 79.583 C 126.400 78.759,129.587 74.473,131.273 73.030 C 135.788 69.165,142.751 67.485,148.200 68.945 M187.503 93.700 L 187.606 118.800 181.203 118.800 L 174.800 118.800 174.800 93.867 C 174.800 80.153,174.925 68.809,175.077 68.657 C 175.229 68.504,178.064 68.429,181.377 68.490 L 187.400 68.600 187.503 93.700 M223.148 68.981 C 229.698 70.724,234.519 75.139,236.742 81.427 C 238.037 85.090,238.042 102.486,236.749 106.173 C 230.458 124.118,204.113 122.633,200.189 104.112 C 199.517 100.942,199.387 87.929,199.990 84.245 C 201.723 73.664,212.947 66.266,223.148 68.981 M273.148 68.981 C 279.698 70.724,284.519 75.139,286.742 81.427 C 288.037 85.090,288.042 102.486,286.749 106.173 C 280.458 124.118,254.113 122.633,250.189 104.112 C 249.517 100.942,249.387 87.929,249.990 84.245 C 251.723 73.664,262.947 66.266,273.148 68.981 M141.400 82.139 C 138.246 83.589,137.611 85.580,137.617 94.000 C 137.622 100.088,137.694 100.740,138.541 102.400 C 140.782 106.792,146.607 106.993,148.879 102.757 C 149.900 100.854,149.955 87.070,148.951 84.953 C 147.672 82.257,144.066 80.914,141.400 82.139 M215.943 82.463 C 213.147 84.085,212.800 85.317,212.800 93.628 C 212.800 100.185,212.885 101.123,213.619 102.638 C 215.854 107.256,222.227 106.805,224.324 101.881 C 225.226 99.762,224.957 87.125,223.965 85.014 C 222.520 81.940,218.855 80.774,215.943 82.463 M265.943 82.463 C 263.147 84.085,262.800 85.317,262.800 93.628 C 262.800 100.185,262.885 101.123,263.619 102.638 C 265.854 107.256,272.227 106.805,274.324 101.881 C 275.226 99.762,274.957 87.125,273.965 85.014 C 272.520 81.940,268.855 80.774,265.943 82.463 M218.047 131.769 C 224.183 133.632,229.373 139.088,231.019 145.409 C 231.825 148.501,231.829 164.103,231.026 167.122 C 226.151 185.434,200.774 186.441,194.458 168.573 C 193.504 165.876,193.111 145.950,194.000 145.400 C 194.220 145.264,194.400 144.837,194.400 144.452 C 194.400 143.397,195.901 140.451,197.595 138.183 C 201.849 132.485,210.975 129.623,218.047 131.769 M256.303 156.300 L 256.200 181.400 250.000 181.400 L 243.800 181.400 243.697 156.300 L 243.594 131.200 250.000 131.200 L 256.406 131.200 256.303 156.300 M295.750 132.935 C 300.753 135.410,304.089 139.433,305.943 145.228 C 306.848 148.058,306.545 165.737,305.542 168.573 C 299.226 186.441,273.849 185.434,268.974 167.122 C 268.171 164.103,268.175 148.501,268.981 145.409 C 272.001 133.812,285.144 127.688,295.750 132.935 M331.503 156.300 L 331.400 181.400 325.000 181.400 L 318.600 181.400 318.497 156.300 L 318.394 131.200 325.000 131.200 L 331.606 131.200 331.503 156.300 M210.319 144.545 C 208.799 145.219,207.200 146.809,207.200 147.646 C 207.200 148.035,207.020 148.464,206.800 148.600 C 205.938 149.133,206.306 163.010,207.235 164.986 C 209.260 169.293,215.443 169.427,217.595 165.211 C 218.838 162.773,218.808 149.436,217.554 147.204 C 216.090 144.599,212.867 143.414,210.319 144.545 M284.748 144.880 C 281.950 146.441,281.600 147.696,281.600 156.170 C 281.600 162.859,281.683 163.795,282.405 165.211 C 284.557 169.427,290.740 169.293,292.765 164.986 C 293.694 163.010,294.062 149.133,293.200 148.600 C 292.980 148.464,292.800 148.037,292.800 147.651 C 292.800 145.027,287.658 143.258,284.748 144.880 M110.691 150.289 C 111.401 150.377,112.661 150.379,113.491 150.292 C 114.321 150.205,113.740 150.133,112.200 150.131 C 110.660 150.129,109.981 150.200,110.691 150.289 M65.600 162.525 C 65.600 162.594,66.185 163.179,66.900 163.825 L 68.200 165.000 67.025 163.700 C 65.930 162.488,65.600 162.216,65.600 162.525 M155.200 167.325 C 155.200 167.394,155.785 167.979,156.500 168.625 L 157.800 169.800 156.625 168.500 C 155.530 167.288,155.200 167.016,155.200 167.325 M109.700 168.697 C 111.185 168.774,113.615 168.774,115.100 168.697 C 116.585 168.620,115.370 168.557,112.400 168.557 C 109.430 168.557,108.215 168.620,109.700 168.697 M65.775 171.300 L 64.600 172.600 65.900 171.425 C 66.615 170.779,67.200 170.194,67.200 170.125 C 67.200 169.816,66.870 170.088,65.775 171.300 M82.575 180.100 L 81.400 181.400 82.700 180.225 C 83.415 179.579,84.000 178.994,84.000 178.925 C 84.000 178.616,83.670 178.888,82.575 180.100 M79.775 182.900 L 78.600 184.200 79.900 183.025 C 80.615 182.379,81.200 181.794,81.200 181.725 C 81.200 181.416,80.870 181.688,79.775 182.900 M106.600 182.200 C 99.386 183.688,99.614 183.360,99.606 192.284 L 99.600 199.568 102.900 199.684 L 106.200 199.800 106.304 218.684 L 106.408 237.568 103.104 237.684 L 99.800 237.800 99.689 243.700 L 99.579 249.600 121.589 249.600 L 143.600 249.600 143.600 230.324 C 143.600 207.842,143.393 205.868,140.365 199.400 C 134.424 186.713,120.099 179.416,106.600 182.200 M218.800 218.810 L 218.800 244.020 212.500 243.910 L 206.200 243.800 206.097 218.700 L 205.994 193.600 212.397 193.600 L 218.800 193.600 218.800 218.810 M254.600 194.000 C 254.736 194.220,255.181 194.400,255.589 194.400 C 258.762 194.400,264.725 199.519,267.065 204.252 L 268.600 207.355 268.718 218.070 C 268.868 231.592,268.425 233.238,263.246 238.436 C 253.175 248.541,236.474 244.426,231.810 230.691 C 231.265 229.084,231.182 227.111,231.282 218.093 L 231.400 207.400 232.855 204.354 C 235.091 199.672,241.211 194.400,244.411 194.400 C 244.819 194.400,245.264 194.220,245.400 194.000 C 245.540 193.773,247.530 193.600,250.000 193.600 C 252.470 193.600,254.460 193.773,254.600 194.000 M304.600 194.000 C 304.736 194.220,305.181 194.400,305.589 194.400 C 308.762 194.400,314.725 199.519,317.065 204.252 L 318.600 207.355 318.718 218.070 C 318.868 231.592,318.425 233.238,313.246 238.436 C 303.175 248.541,286.474 244.426,281.810 230.691 C 281.265 229.084,281.182 227.111,281.282 218.093 L 281.400 207.400 282.855 204.354 C 285.091 199.672,291.211 194.400,294.411 194.400 C 294.819 194.400,295.264 194.220,295.400 194.000 C 295.540 193.773,297.530 193.600,300.000 193.600 C 302.470 193.600,304.460 193.773,304.600 194.000 M248.600 206.800 C 248.464 207.020,248.037 207.200,247.651 207.200 C 246.817 207.200,245.142 208.951,244.475 210.519 C 243.527 212.751,243.856 225.927,244.907 227.758 C 247.198 231.756,252.686 231.785,255.014 227.813 C 256.151 225.872,256.534 212.895,255.525 210.519 C 254.858 208.951,253.183 207.200,252.349 207.200 C 251.963 207.200,251.536 207.020,251.400 206.800 C 251.264 206.580,250.634 206.400,250.000 206.400 C 249.366 206.400,248.736 206.580,248.600 206.800 M298.600 206.800 C 298.464 207.020,298.037 207.200,297.651 207.200 C 296.817 207.200,295.142 208.951,294.475 210.519 C 293.527 212.751,293.856 225.927,294.907 227.758 C 297.198 231.756,302.686 231.785,305.014 227.813 C 306.151 225.872,306.534 212.895,305.525 210.519 C 304.858 208.951,303.183 207.200,302.349 207.200 C 301.963 207.200,301.536 207.020,301.400 206.800 C 301.264 206.580,300.634 206.400,300.000 206.400 C 299.366 206.400,298.736 206.580,298.600 206.800 M68.534 210.000 C 68.534 211.650,68.605 212.325,68.691 211.500 C 68.778 210.675,68.778 209.325,68.691 208.500 C 68.605 207.675,68.534 208.350,68.534 210.000 M50.167 217.200 C 50.167 221.490,50.226 223.245,50.298 221.100 C 50.370 218.955,50.370 215.445,50.298 213.300 C 50.226 211.155,50.167 212.910,50.167 217.200 M160.900 249.899 C 163.485 249.968,167.715 249.968,170.300 249.899 C 172.885 249.829,170.770 249.772,165.600 249.772 C 160.430 249.772,158.315 249.829,160.900 249.899 M243.903 287.500 L 243.800 312.600 237.500 312.710 L 231.200 312.820 231.200 287.610 L 231.200 262.400 237.603 262.400 L 244.006 262.400 243.903 287.500 M280.040 262.839 C 284.220 264.188,290.800 268.993,290.800 270.697 C 290.800 270.974,290.938 271.200,291.106 271.200 C 291.469 271.200,292.670 273.875,293.442 276.400 C 294.150 278.718,294.231 296.223,293.543 298.372 C 287.382 317.627,262.618 317.627,256.457 298.372 C 255.717 296.059,255.854 278.252,256.629 276.028 C 258.940 269.391,263.272 265.063,269.800 262.867 C 271.435 262.317,278.365 262.298,280.040 262.839 M318.800 287.610 L 318.800 312.820 312.500 312.710 L 306.200 312.600 306.097 287.500 L 305.994 262.400 312.397 262.400 L 318.800 262.400 318.800 287.610 M272.211 276.181 C 267.971 278.652,267.132 294.550,271.060 297.999 C 274.585 301.094,279.654 299.381,280.770 294.719 C 281.602 291.244,281.218 280.615,280.189 278.655 C 278.574 275.576,275.099 274.499,272.211 276.181 " stroke="none" fill="#83c9d1" fill-rule="evenodd"></path><path id="path3" d="M105.470 150.793 C 99.737 151.521,92.868 153.275,88.893 155.027 C 85.259 156.629,82.074 158.249,80.528 159.283 C 78.328 160.753,78.469 160.810,76.400 157.586 C 74.455 154.555,73.535 154.231,71.977 156.027 C 71.608 156.452,71.096 156.800,70.839 156.800 C 70.582 156.800,69.973 157.168,69.486 157.618 C 67.881 159.098,66.205 160.399,65.900 160.400 C 65.011 160.401,65.844 162.344,67.600 164.363 C 69.963 167.079,69.987 167.236,68.300 168.941 C 65.759 171.509,63.215 174.452,62.526 175.617 C 62.142 176.268,61.686 176.800,61.514 176.800 C 61.341 176.800,61.200 177.036,61.200 177.325 C 61.200 177.613,60.885 178.206,60.500 178.642 C 58.794 180.573,55.227 187.870,53.677 192.600 C 51.100 200.466,50.738 202.984,50.505 214.700 L 50.304 224.800 59.352 224.800 L 68.400 224.800 68.400 216.377 C 68.400 211.745,68.585 207.110,68.811 206.077 C 69.038 205.045,69.411 203.300,69.641 202.200 C 70.282 199.131,70.878 197.497,72.849 193.400 C 73.590 191.860,74.332 190.540,74.498 190.467 C 74.664 190.393,74.800 190.156,74.800 189.939 C 74.800 189.577,76.488 186.961,77.982 185.010 C 78.783 183.963,83.963 178.783,85.010 177.982 C 86.961 176.488,89.577 174.800,89.939 174.800 C 90.156 174.800,90.393 174.664,90.467 174.498 C 90.865 173.596,98.605 170.392,102.200 169.641 C 103.300 169.411,105.045 169.038,106.077 168.811 C 110.444 167.854,121.881 168.770,125.800 170.391 C 126.240 170.573,127.680 171.133,129.000 171.636 C 130.320 172.139,132.120 172.975,133.000 173.493 C 133.880 174.011,134.915 174.538,135.300 174.664 C 135.685 174.790,136.000 175.052,136.000 175.247 C 136.000 175.441,136.236 175.600,136.525 175.600 C 136.813 175.600,137.398 175.915,137.825 176.300 C 138.252 176.685,139.245 177.481,140.033 178.069 C 142.282 179.747,146.287 183.940,148.170 186.586 C 152.024 192.002,154.112 196.913,155.959 204.906 C 156.251 206.167,156.400 214.050,156.400 228.206 L 156.400 249.600 165.617 249.600 L 174.833 249.600 174.655 228.500 C 174.555 216.568,174.292 206.183,174.051 204.600 C 173.816 203.060,173.510 200.990,173.371 200.000 C 173.232 199.010,172.956 198.029,172.759 197.820 C 172.562 197.611,172.400 197.083,172.400 196.647 C 172.400 188.793,161.118 171.925,149.751 162.782 C 148.146 161.491,145.240 159.600,144.861 159.600 C 144.644 159.600,144.407 159.455,144.333 159.278 C 144.049 158.590,134.015 153.996,131.000 153.173 C 127.478 152.211,126.326 151.941,123.400 151.392 C 119.513 150.662,109.216 150.318,105.470 150.793 " stroke="none" fill="#dbdbdb" fill-rule="evenodd"></path><path id="path4" d="M115.000 25.358 C 110.696 27.023,107.654 30.195,106.478 34.246 C 106.120 35.479,106.000 47.063,106.000 80.330 L 106.000 124.766 102.900 124.903 L 99.800 125.039 103.100 125.120 L 106.400 125.200 106.400 80.946 C 106.400 49.393,106.529 36.220,106.850 35.046 C 108.233 29.989,110.820 27.344,116.028 25.661 C 117.089 25.319,139.300 25.200,202.328 25.200 L 287.200 25.200 287.214 45.500 C 287.230 68.281,287.481 70.541,290.466 74.862 C 290.870 75.446,291.200 76.029,291.200 76.157 C 291.200 77.782,298.157 83.752,302.100 85.510 C 306.277 87.372,305.914 87.344,328.500 87.484 L 349.600 87.614 349.598 207.107 C 349.596 291.724,349.469 327.067,349.162 328.200 C 348.203 331.738,344.776 335.366,341.200 336.632 C 340.648 336.827,314.372 337.079,282.600 337.193 L 225.000 337.400 224.890 343.900 L 224.780 350.400 282.890 350.386 C 344.284 350.371,342.592 350.418,347.200 348.579 C 351.925 346.693,359.600 339.667,359.600 337.228 C 359.600 336.993,359.780 336.800,360.000 336.800 C 360.220 336.800,360.400 336.440,360.400 336.000 C 360.400 335.560,360.541 335.200,360.713 335.200 C 360.885 335.200,361.258 334.345,361.543 333.300 C 361.827 332.255,362.226 330.987,362.430 330.481 C 363.046 328.952,362.917 79.394,362.300 78.313 C 362.025 77.831,355.790 71.398,348.444 64.018 L 335.088 50.600 348.844 50.481 C 366.213 50.331,368.819 50.839,371.680 54.937 C 372.165 55.632,372.660 56.290,372.781 56.400 C 373.144 56.730,373.919 58.519,374.253 59.800 C 374.664 61.371,374.663 351.033,374.252 352.600 C 372.904 357.745,369.340 360.949,363.833 361.964 C 362.184 362.268,340.750 362.400,293.133 362.400 L 224.800 362.400 224.880 365.700 L 224.961 369.000 225.097 365.908 L 225.233 362.815 295.317 362.708 L 365.400 362.600 367.681 361.480 C 370.537 360.077,373.293 357.068,374.378 354.166 L 375.200 351.970 375.200 206.445 C 375.200 102.965,375.075 60.527,374.766 59.560 C 373.494 55.573,371.071 52.622,367.690 50.941 C 366.045 50.123,334.400 49.545,334.400 50.333 C 334.400 50.531,340.419 56.727,347.776 64.102 C 356.728 73.076,361.359 78.005,361.776 79.005 C 362.672 81.148,362.735 325.438,361.842 329.600 C 359.918 338.556,354.120 345.432,346.141 348.218 C 340.985 350.019,341.701 349.999,281.900 350.000 L 225.200 350.000 225.200 343.800 L 225.200 337.600 282.581 337.600 C 324.141 337.600,340.271 337.476,341.081 337.150 C 343.812 336.052,344.315 335.733,346.281 333.854 C 347.574 332.618,348.673 331.096,349.184 329.832 L 350.006 327.800 349.903 207.600 L 349.800 87.400 328.600 87.200 L 307.400 87.000 304.477 85.932 C 299.702 84.188,291.600 77.855,291.600 75.867 C 291.600 75.678,291.261 75.046,290.847 74.462 C 290.074 73.371,289.017 70.626,288.280 67.800 C 288.034 66.854,287.769 57.785,287.632 45.600 L 287.400 25.000 201.800 24.947 C 137.709 24.908,115.898 25.011,115.000 25.358 M300.000 34.624 C 300.000 34.967,300.146 35.157,300.325 35.047 C 300.503 34.936,309.637 43.836,320.623 54.823 L 340.597 74.800 325.845 74.800 C 315.593 74.800,310.591 74.654,309.446 74.322 C 304.933 73.012,301.526 69.370,300.542 64.805 C 300.114 62.816,300.064 62.744,300.034 64.067 C 299.942 68.081,304.000 73.000,308.800 74.694 C 310.725 75.373,340.800 75.419,340.800 74.743 C 340.800 74.277,300.720 34.000,300.256 34.000 C 300.115 34.000,300.000 34.281,300.000 34.624 M124.976 37.718 C 124.867 38.002,124.828 40.927,124.889 44.218 L 125.000 50.200 131.200 50.200 L 137.400 50.200 137.510 43.700 L 137.620 37.200 131.397 37.200 C 126.676 37.200,125.127 37.325,124.976 37.718 M149.876 37.457 C 149.309 38.025,149.563 49.471,150.154 49.962 C 150.531 50.275,152.610 50.386,156.654 50.311 L 162.600 50.200 162.600 43.800 L 162.600 37.400 156.376 37.290 C 152.953 37.230,150.028 37.305,149.876 37.457 M174.976 37.718 C 174.867 38.002,174.828 40.927,174.889 44.218 L 175.000 50.200 181.200 50.200 L 187.400 50.200 187.510 43.700 L 187.620 37.200 181.397 37.200 C 176.676 37.200,175.127 37.325,174.976 37.718 M137.200 43.800 L 137.200 50.000 131.200 50.000 L 125.200 50.000 125.200 43.800 L 125.200 37.600 131.200 37.600 L 137.200 37.600 137.200 43.800 M162.310 43.700 L 162.200 49.800 156.200 49.800 L 150.200 49.800 150.088 44.219 C 149.942 36.917,149.291 37.600,156.398 37.600 L 162.421 37.600 162.310 43.700 M187.200 43.800 L 187.200 50.000 181.200 50.000 L 175.200 50.000 175.200 43.800 L 175.200 37.600 181.200 37.600 L 187.200 37.600 187.200 43.800 M139.077 69.000 C 133.661 70.489,126.400 76.551,126.400 79.583 C 126.400 79.819,126.242 80.323,126.049 80.705 C 124.990 82.801,124.800 84.797,124.800 93.800 C 124.800 103.944,124.872 104.450,126.924 108.713 C 131.329 117.866,143.338 121.627,152.779 116.810 C 154.452 115.957,159.600 111.319,159.600 110.665 C 159.600 110.477,159.942 109.844,160.359 109.258 C 162.364 106.442,162.800 103.679,162.800 93.800 C 162.800 82.579,162.121 79.688,158.513 75.544 C 156.361 73.072,154.140 71.286,152.000 70.306 C 147.833 68.397,143.034 67.912,139.077 69.000 M174.988 68.890 C 174.880 69.170,174.841 80.560,174.899 94.200 L 175.006 119.000 175.103 93.900 L 175.200 68.800 181.197 68.800 L 187.194 68.800 187.302 93.800 L 187.409 118.800 187.405 93.700 L 187.400 68.600 181.291 68.490 C 176.625 68.405,175.137 68.500,174.988 68.890 M213.955 68.980 C 206.987 70.902,201.126 77.308,199.990 84.245 C 199.387 87.929,199.517 100.942,200.189 104.112 C 204.113 122.633,230.458 124.118,236.749 106.173 C 238.042 102.486,238.037 85.090,236.742 81.427 C 233.412 72.007,223.202 66.430,213.955 68.980 M263.955 68.980 C 256.987 70.902,251.126 77.308,249.990 84.245 C 249.387 87.929,249.517 100.942,250.189 104.112 C 254.113 122.633,280.458 124.118,286.749 106.173 C 288.042 102.486,288.037 85.090,286.742 81.427 C 283.412 72.007,273.202 66.430,263.955 68.980 M147.674 69.372 C 154.770 71.068,160.132 76.430,161.828 83.526 C 162.499 86.332,162.599 100.784,161.967 103.523 C 157.500 122.868,130.872 123.475,125.781 104.348 C 125.072 101.684,124.967 85.961,125.641 83.446 C 128.347 73.359,138.151 67.096,147.674 69.372 M222.542 69.388 C 229.687 71.095,235.358 76.702,236.816 83.502 C 237.703 87.637,237.128 104.211,236.007 106.800 C 228.627 123.851,204.447 121.593,200.563 103.491 C 199.139 96.856,200.033 83.807,202.220 79.309 C 203.401 76.878,207.048 72.739,208.778 71.864 C 209.340 71.580,210.160 71.147,210.600 70.903 C 213.934 69.051,218.634 68.455,222.542 69.388 M272.542 69.388 C 279.687 71.095,285.358 76.702,286.816 83.502 C 287.703 87.637,287.128 104.211,286.007 106.800 C 278.627 123.851,254.447 121.593,250.563 103.491 C 249.139 96.856,250.033 83.807,252.220 79.309 C 253.401 76.878,257.048 72.739,258.778 71.864 C 259.340 71.580,260.160 71.147,260.600 70.903 C 263.934 69.051,268.634 68.455,272.542 69.388 M140.359 82.103 C 136.457 84.696,135.568 100.608,139.107 104.518 C 141.690 107.373,146.877 106.785,149.100 103.387 C 149.961 102.071,150.000 101.646,150.000 93.665 C 150.000 85.670,149.962 85.262,149.100 83.989 C 147.200 81.182,143.082 80.294,140.359 82.103 M215.319 82.125 C 212.664 83.938,212.400 84.993,212.400 93.774 C 212.400 99.750,212.535 101.899,212.962 102.720 C 215.544 107.683,222.510 107.523,224.635 102.451 C 225.393 100.641,225.447 86.431,224.700 85.095 C 222.606 81.347,218.404 80.017,215.319 82.125 M265.319 82.125 C 262.664 83.938,262.400 84.993,262.400 93.774 C 262.400 99.750,262.535 101.899,262.962 102.720 C 265.544 107.683,272.510 107.523,274.635 102.451 C 275.393 100.641,275.447 86.431,274.700 85.095 C 272.606 81.347,268.404 80.017,265.319 82.125 M147.114 82.739 C 149.333 84.319,149.600 85.515,149.600 93.867 C 149.600 102.541,149.350 103.432,146.468 105.051 C 143.404 106.772,140.230 105.711,138.541 102.400 C 137.438 100.238,137.150 88.726,138.129 85.917 C 139.499 81.982,143.877 80.434,147.114 82.739 M221.438 82.419 C 224.332 83.820,224.800 85.399,224.800 93.777 C 224.800 101.007,224.601 102.144,223.024 103.935 C 220.351 106.969,215.383 106.284,213.619 102.638 C 212.366 100.052,212.385 87.048,213.643 84.808 C 215.296 81.868,218.360 80.928,221.438 82.419 M271.438 82.419 C 274.332 83.820,274.800 85.399,274.800 93.777 C 274.800 101.007,274.601 102.144,273.024 103.935 C 270.351 106.969,265.383 106.284,263.619 102.638 C 262.366 100.052,262.385 87.048,263.643 84.808 C 265.296 81.868,268.360 80.928,271.438 82.419 M205.823 132.196 C 200.179 134.516,194.400 140.716,194.400 144.452 C 194.400 144.837,194.220 145.264,194.000 145.400 C 193.111 145.950,193.504 165.876,194.458 168.573 C 200.774 186.441,226.151 185.434,231.026 167.122 C 231.829 164.103,231.825 148.501,231.019 145.409 C 228.199 134.583,215.815 128.089,205.823 132.196 M243.795 156.300 L 243.800 181.400 250.000 181.400 L 256.200 181.400 256.205 156.300 L 256.209 131.200 256.102 156.200 L 255.994 181.200 250.000 181.200 L 244.006 181.200 243.898 156.200 L 243.791 131.200 243.795 156.300 M281.346 131.940 C 275.441 134.002,270.570 139.307,268.981 145.409 C 268.175 148.501,268.171 164.103,268.974 167.122 C 273.849 185.434,299.226 186.441,305.542 168.573 C 306.545 165.737,306.848 148.058,305.943 145.228 C 302.488 134.429,291.390 128.434,281.346 131.940 M318.497 156.300 L 318.600 181.400 325.000 181.400 L 331.400 181.400 331.503 156.300 C 331.560 142.495,331.470 131.200,331.303 131.200 C 331.136 131.200,331.000 142.405,331.000 156.100 L 331.000 181.000 325.000 181.000 L 319.000 181.000 319.000 156.100 C 319.000 142.405,318.864 131.200,318.697 131.200 C 318.530 131.200,318.440 142.495,318.497 156.300 M220.168 133.184 C 225.389 135.678,229.235 140.491,230.612 146.258 C 231.699 150.810,231.307 165.220,230.003 168.600 C 226.748 177.043,217.856 182.398,209.700 180.827 C 198.220 178.615,194.013 171.999,194.005 156.142 C 193.997 141.634,197.482 135.177,206.800 132.433 C 207.790 132.141,208.780 131.838,209.000 131.758 C 210.854 131.085,217.570 131.943,220.168 133.184 M293.400 132.395 C 299.942 135.152,303.807 139.350,305.387 145.414 C 306.210 148.576,306.251 164.021,305.444 167.053 C 300.358 186.154,273.872 185.306,269.253 165.894 C 267.867 160.066,268.886 146.136,271.027 141.658 C 274.673 134.032,286.079 129.311,293.400 132.395 M105.400 137.408 C 105.180 137.508,103.740 137.765,102.200 137.978 C 99.791 138.311,99.987 138.327,103.600 138.088 C 113.365 137.443,123.217 138.040,129.400 139.649 C 130.280 139.879,131.720 140.252,132.600 140.479 C 133.480 140.706,134.560 141.039,135.000 141.219 C 135.440 141.400,136.970 141.938,138.400 142.416 C 161.656 150.185,181.038 172.917,185.792 198.000 C 186.147 199.870,186.548 201.760,186.683 202.200 C 186.819 202.640,187.036 213.530,187.165 226.400 L 187.400 249.800 191.800 250.050 C 202.618 250.665,209.062 255.172,211.747 264.000 C 212.033 264.942,212.244 282.339,212.391 317.200 L 212.609 369.000 212.704 317.366 C 212.799 266.395,212.790 265.700,211.987 263.254 C 209.044 254.292,201.880 249.609,191.100 249.602 L 187.600 249.600 187.600 227.324 C 187.600 213.345,187.441 204.145,187.174 202.624 C 183.896 183.980,177.847 171.689,166.000 159.601 C 159.536 153.005,144.314 142.820,140.895 142.803 C 140.617 142.801,140.077 142.641,139.695 142.447 C 138.464 141.821,137.038 141.264,135.400 140.771 C 134.520 140.506,133.440 140.148,133.000 139.975 C 132.560 139.802,131.660 139.547,131.000 139.409 C 130.340 139.270,128.990 138.983,128.000 138.771 C 123.626 137.834,120.517 137.539,113.400 137.388 C 109.220 137.299,105.620 137.308,105.400 137.408 M209.743 144.155 C 206.412 146.005,206.000 147.325,206.000 156.135 C 206.000 161.578,206.148 163.855,206.565 164.851 C 208.609 169.729,214.988 170.226,217.931 165.737 C 219.246 163.730,219.263 149.133,217.953 146.802 C 216.427 144.087,212.275 142.748,209.743 144.155 M284.343 144.463 C 281.496 146.114,281.200 147.236,281.200 156.360 C 281.200 164.726,281.289 165.245,283.022 166.978 C 286.261 170.216,291.648 169.116,293.435 164.851 C 294.378 162.600,294.232 149.222,293.243 147.284 C 291.460 143.792,287.607 142.571,284.343 144.463 M215.117 144.850 C 218.058 146.420,218.400 147.598,218.400 156.170 C 218.400 162.859,218.317 163.795,217.595 165.211 C 215.443 169.427,209.260 169.293,207.235 164.986 C 206.306 163.010,205.938 149.133,206.800 148.600 C 207.020 148.464,207.200 148.035,207.200 147.646 C 207.200 145.034,212.172 143.278,215.117 144.850 M289.481 144.475 C 291.049 145.142,292.800 146.817,292.800 147.651 C 292.800 148.037,292.980 148.464,293.200 148.600 C 294.062 149.133,293.694 163.010,292.765 164.986 C 290.740 169.293,284.557 169.427,282.405 165.211 C 281.160 162.769,281.192 149.435,282.448 147.199 C 283.899 144.618,286.995 143.419,289.481 144.475 M103.800 150.400 L 102.600 150.705 104.000 150.713 C 104.770 150.717,106.390 150.584,107.600 150.417 L 109.800 150.113 107.400 150.104 C 106.080 150.099,104.460 150.232,103.800 150.400 M117.000 150.415 C 118.320 150.579,120.120 150.712,121.000 150.711 L 122.600 150.708 121.000 150.377 C 120.120 150.195,118.320 150.062,117.000 150.082 L 114.600 150.118 117.000 150.415 M99.200 151.200 C 98.225 151.512,98.230 151.521,99.400 151.532 C 100.060 151.538,100.960 151.389,101.400 151.200 C 102.494 150.730,100.667 150.730,99.200 151.200 M123.400 151.200 C 123.840 151.389,124.637 151.556,125.172 151.572 C 125.706 151.587,126.696 151.775,127.372 151.988 C 128.047 152.201,129.860 152.751,131.400 153.209 C 134.444 154.114,135.380 154.500,140.200 156.845 C 156.627 164.833,169.794 181.581,173.231 198.858 C 173.465 200.036,173.848 201.990,174.082 203.200 C 174.328 204.475,174.616 214.818,174.766 227.800 L 175.025 250.200 175.113 228.965 C 175.208 205.905,175.025 203.207,172.854 195.600 C 172.634 194.830,172.337 193.750,172.194 193.200 C 172.050 192.650,171.744 191.750,171.513 191.200 C 171.282 190.650,170.958 189.840,170.794 189.400 C 164.973 173.820,150.780 159.870,134.573 153.800 C 130.700 152.349,124.817 150.786,123.400 150.831 L 122.600 150.856 123.400 151.200 M92.677 152.999 C 89.077 154.244,83.453 156.822,80.000 158.811 C 78.402 159.732,78.626 159.879,76.108 156.258 C 75.398 155.236,74.605 154.400,74.347 154.400 C 74.089 154.400,74.220 154.715,74.639 155.101 C 75.557 155.946,76.955 157.933,77.318 158.909 C 77.760 160.097,78.647 160.112,80.668 158.966 C 85.444 156.259,89.312 154.543,93.600 153.230 C 95.250 152.725,96.960 152.163,97.400 151.983 L 98.200 151.654 97.400 151.649 C 96.960 151.646,94.835 152.253,92.677 152.999 M65.260 161.607 C 65.220 162.283,65.791 163.290,67.000 164.671 C 69.183 167.167,69.177 166.904,67.100 169.176 C 64.587 171.924,63.484 173.241,62.385 174.801 C 61.843 175.570,61.301 176.290,61.181 176.400 C 57.874 179.416,50.662 196.753,50.836 201.267 C 50.876 202.292,50.966 202.007,52.001 197.600 C 52.649 194.840,53.857 191.030,54.664 189.200 C 57.999 181.638,61.976 175.393,66.554 170.527 C 70.164 166.689,70.097 167.060,67.620 164.620 C 66.531 163.548,65.568 162.204,65.480 161.635 L 65.320 160.600 65.260 161.607 M105.200 169.200 L 103.800 169.495 105.400 169.512 C 106.280 169.522,107.900 169.390,109.000 169.218 L 111.000 168.907 108.800 168.906 C 107.590 168.906,105.970 169.038,105.200 169.200 M117.600 169.421 C 136.185 171.945,150.571 184.722,154.733 202.400 C 154.966 203.390,155.286 204.740,155.444 205.400 C 155.601 206.060,155.841 216.410,155.977 228.400 L 156.223 250.200 156.311 229.077 C 156.367 215.747,156.248 207.262,155.989 206.077 C 155.762 205.045,155.389 203.300,155.159 202.200 C 153.352 193.553,147.603 184.448,140.179 178.473 C 132.982 172.681,123.006 168.715,116.000 168.859 C 114.036 168.900,114.208 168.960,117.600 169.421 M99.281 170.615 C 86.307 175.034,76.418 184.298,71.670 196.481 C 70.070 200.586,69.093 204.432,69.964 203.200 C 70.197 202.870,70.393 202.240,70.400 201.800 C 70.414 200.897,71.308 198.159,71.726 197.741 C 71.877 197.590,72.000 197.215,72.000 196.908 C 72.000 196.352,74.351 191.181,74.777 190.800 C 74.901 190.690,75.263 190.092,75.583 189.472 C 77.386 185.977,84.841 178.435,88.800 176.100 C 89.790 175.516,90.690 174.929,90.800 174.796 C 91.152 174.370,96.328 172.000,96.908 172.000 C 97.215 172.000,97.590 171.877,97.741 171.726 C 98.159 171.308,100.897 170.414,101.800 170.400 C 102.240 170.393,102.870 170.213,103.200 170.000 C 104.345 169.260,102.330 169.576,99.281 170.615 M104.923 182.012 C 101.596 182.872,99.597 183.811,99.606 184.510 C 99.611 184.872,99.689 184.879,99.906 184.538 C 100.068 184.284,101.280 183.716,102.600 183.276 C 117.537 178.295,133.717 185.203,140.365 199.400 C 143.393 205.868,143.600 207.842,143.600 230.321 L 143.600 249.593 121.500 249.700 L 99.400 249.807 121.716 249.903 L 144.033 250.000 143.901 228.700 C 143.782 209.413,143.700 207.154,143.029 204.800 C 140.378 195.500,134.427 188.278,126.087 184.244 C 123.562 183.022,122.645 182.704,118.554 181.632 C 115.924 180.942,108.232 181.157,104.923 182.012 M206.097 218.700 L 206.200 243.800 212.500 243.910 C 215.965 243.971,218.800 243.881,218.801 243.710 C 218.801 243.540,216.011 243.454,212.601 243.520 L 206.400 243.639 206.400 218.830 L 206.400 194.020 212.700 193.899 L 219.000 193.778 212.497 193.689 L 205.994 193.600 206.097 218.700 M245.400 194.000 C 245.264 194.220,244.819 194.400,244.411 194.400 C 239.270 194.400,231.557 203.597,231.337 209.989 L 231.247 212.600 231.592 210.402 C 232.527 204.440,235.076 200.284,239.687 197.206 C 251.294 189.454,266.196 196.301,268.408 210.402 L 268.753 212.600 268.661 209.947 C 268.440 203.614,260.692 194.400,255.589 194.400 C 255.181 194.400,254.736 194.220,254.600 194.000 C 254.460 193.773,252.470 193.600,250.000 193.600 C 247.530 193.600,245.540 193.773,245.400 194.000 M295.400 194.000 C 295.264 194.220,294.819 194.400,294.411 194.400 C 289.270 194.400,281.557 203.597,281.337 209.989 L 281.247 212.600 281.592 210.402 C 282.527 204.440,285.076 200.284,289.687 197.206 C 301.294 189.454,316.196 196.301,318.408 210.402 L 318.753 212.600 318.661 209.947 C 318.440 203.614,310.692 194.400,305.589 194.400 C 305.181 194.400,304.736 194.220,304.600 194.000 C 304.460 193.773,302.470 193.600,300.000 193.600 C 297.530 193.600,295.540 193.773,295.400 194.000 M102.900 199.892 L 106.000 200.032 106.000 218.599 L 106.000 237.165 103.100 237.303 L 100.200 237.441 103.304 237.521 L 106.408 237.600 106.304 218.700 L 106.200 199.800 103.000 199.776 L 99.800 199.752 102.900 199.892 M50.299 203.800 C 50.139 204.680,50.030 206.390,50.055 207.600 L 50.101 209.800 50.464 207.000 C 50.891 203.700,50.764 201.237,50.299 203.800 M68.997 206.490 C 68.847 207.894,68.795 209.483,68.882 210.021 C 68.969 210.560,69.186 209.505,69.364 207.677 C 69.542 205.849,69.594 204.260,69.479 204.146 C 69.364 204.031,69.147 205.086,68.997 206.490 M247.400 206.666 C 243.856 208.539,243.600 209.351,243.600 218.726 C 243.600 226.360,243.622 226.567,244.616 228.263 C 247.044 232.407,252.927 232.331,255.475 228.122 C 256.572 226.309,256.913 211.706,255.900 209.895 C 254.007 206.509,250.337 205.114,247.400 206.666 M297.400 206.666 C 293.856 208.539,293.600 209.351,293.600 218.726 C 293.600 226.360,293.622 226.567,294.616 228.263 C 297.044 232.407,302.927 232.331,305.475 228.122 C 306.572 226.309,306.913 211.706,305.900 209.895 C 304.007 206.509,300.337 205.114,297.400 206.666 M251.400 206.800 C 251.536 207.020,251.963 207.200,252.349 207.200 C 253.183 207.200,254.858 208.951,255.525 210.519 C 256.534 212.895,256.151 225.872,255.014 227.813 C 252.686 231.785,247.198 231.756,244.907 227.758 C 243.856 225.927,243.527 212.751,244.475 210.519 C 245.142 208.951,246.817 207.200,247.651 207.200 C 248.037 207.200,248.464 207.020,248.600 206.800 C 248.736 206.580,249.366 206.400,250.000 206.400 C 250.634 206.400,251.264 206.580,251.400 206.800 M301.400 206.800 C 301.536 207.020,301.963 207.200,302.349 207.200 C 303.183 207.200,304.858 208.951,305.525 210.519 C 306.534 212.895,306.151 225.872,305.014 227.813 C 302.686 231.785,297.198 231.756,294.907 227.758 C 293.856 225.927,293.527 212.751,294.475 210.519 C 295.142 208.951,296.817 207.200,297.651 207.200 C 298.037 207.200,298.464 207.020,298.600 206.800 C 298.736 206.580,299.366 206.400,300.000 206.400 C 300.634 206.400,301.264 206.580,301.400 206.800 M68.400 218.793 L 68.400 224.785 59.100 224.900 L 49.800 225.015 59.300 225.108 L 68.800 225.200 68.800 219.000 C 68.800 215.590,68.710 212.800,68.600 212.800 C 68.490 212.800,68.400 215.497,68.400 218.793 M231.251 226.806 C 231.098 233.470,236.641 240.445,244.234 243.141 C 255.194 247.032,268.968 237.848,268.744 226.800 L 268.699 224.600 268.346 227.345 C 265.625 248.533,234.376 248.520,231.652 227.329 L 231.301 224.600 231.251 226.806 M281.251 226.806 C 281.098 233.470,286.641 240.445,294.234 243.141 C 305.194 247.032,318.968 237.848,318.744 226.800 L 318.699 224.600 318.346 227.345 C 315.625 248.533,284.376 248.520,281.652 227.329 L 281.301 224.600 281.251 226.806 M237.300 262.699 L 243.600 262.820 243.600 287.630 L 243.600 312.439 237.399 312.320 C 233.989 312.254,231.199 312.340,231.199 312.510 C 231.200 312.681,234.035 312.771,237.500 312.710 L 243.800 312.600 243.903 287.500 L 244.006 262.400 237.503 262.489 L 231.000 262.578 237.300 262.699 M269.800 262.867 C 263.272 265.063,258.940 269.391,256.629 276.028 C 255.854 278.252,255.717 296.059,256.457 298.372 C 262.618 317.627,287.382 317.627,293.543 298.372 C 294.231 296.223,294.150 278.718,293.442 276.400 C 292.670 273.875,291.469 271.200,291.106 271.200 C 290.938 271.200,290.800 270.974,290.800 270.697 C 290.800 268.993,284.220 264.188,280.040 262.839 C 278.365 262.298,271.435 262.317,269.800 262.867 M306.097 287.500 L 306.200 312.600 312.500 312.710 C 315.965 312.771,318.800 312.681,318.801 312.510 C 318.801 312.340,316.011 312.254,312.601 312.320 L 306.400 312.439 306.400 287.630 L 306.400 262.820 312.700 262.699 L 319.000 262.578 312.497 262.489 L 305.994 262.400 306.097 287.500 M279.794 263.415 C 286.147 265.070,291.278 270.326,293.002 276.943 C 293.847 280.188,293.843 294.625,292.997 297.880 C 288.001 317.094,261.264 316.829,256.831 297.523 C 256.155 294.580,256.276 279.716,256.998 276.943 C 259.647 266.771,269.723 260.792,279.794 263.415 M271.989 275.637 C 270.188 276.682,268.790 278.717,268.836 280.225 L 268.872 281.400 269.261 280.048 C 269.846 278.014,270.621 277.044,272.434 276.076 C 275.865 274.245,279.581 276.022,280.739 280.048 L 281.128 281.400 281.164 280.225 C 281.283 276.351,275.630 273.525,271.989 275.637 M268.843 294.800 C 268.788 296.176,270.130 298.247,271.696 299.202 C 275.378 301.447,281.314 298.685,281.157 294.800 C 281.123 293.965,281.041 294.042,280.658 295.268 C 278.916 300.851,271.086 300.910,269.365 295.353 C 268.977 294.101,268.876 293.994,268.843 294.800 " stroke="none" fill="#577b80" fill-rule="evenodd"></path></g></svg>